<?xml version="1.0" encoding="utf-8"?>
<!-- Generator: Adobe Illustrator 27.5.0, SVG Export Plug-In . SVG Version: 6.00 Build 0)  -->
<svg version="1.1" id="Layer_1" xmlns="http://www.w3.org/2000/svg" xmlns:xlink="http://www.w3.org/1999/xlink" x="0px" y="0px"
	 viewBox="0 0 743.25 400" style="enable-background:new 0 0 743.25 400;" xml:space="preserve">
<g>
	<g>
		<rect x="0.143" y="305.812" style="fill:#EEECF1;" width="743.106" height="94.188"/>
	</g>
	<g>
		<path style="fill:#DAD4DD;" d="M252.258,399.874c-0.053,0-0.107-0.011-0.159-0.033L58.111,316.116
			c-0.204-0.088-0.298-0.324-0.21-0.528c0.088-0.204,0.326-0.297,0.528-0.21l193.988,83.725c0.204,0.088,0.298,0.324,0.21,0.528
			C252.562,399.783,252.413,399.874,252.258,399.874z"/>
	</g>
	<g>
		<path style="fill:#DAD4DD;" d="M459.624,399.874c-0.054,0-0.107-0.011-0.159-0.033l-193.988-83.725
			c-0.204-0.088-0.298-0.324-0.21-0.528c0.088-0.204,0.326-0.297,0.528-0.21l193.988,83.725c0.204,0.088,0.298,0.324,0.21,0.528
			C459.927,399.783,459.779,399.874,459.624,399.874z"/>
	</g>
	<g>
		<path style="fill:#DAD4DD;" d="M684.202,399.874c-0.054,0-0.108-0.011-0.159-0.033l-193.988-83.725
			c-0.204-0.088-0.298-0.324-0.21-0.528c0.089-0.205,0.327-0.297,0.528-0.21l193.988,83.725c0.204,0.088,0.298,0.324,0.21,0.528
			C684.506,399.783,684.357,399.874,684.202,399.874z"/>
	</g>
	<g>
		<rect x="0.143" y="305.812" style="fill:#DAD4DD;" width="357.574" height="9.935"/>
	</g>
</g>
<g>
	<g>
		<path style="fill:#92B4EA;" d="M607.086,102.039c0,0-10.773,0.954-14.818,6.155c-4.045,5.201,1.3,37.81,1.589,38.265
			c0.289,0.454,7.792,3.777,20.872,3.488c13.08-0.289,16.258-2.787,16.692-3.488s3.178-37.516,0-40.635
			C628.242,102.704,614.969,101.085,607.086,102.039z"/>
	</g>
	<g>
		<g>
			<g>
				<g>
					<path style="fill:#FF9C85;" d="M613.503,96.413l-0.156,7.008c0,0-1.309,1.986-5.415,2.229c-3.059,0.18-4.117-0.534-4.117-0.534
						l0.504-3.54l0.497-3.452l7.439-1.464L613.503,96.413z"/>
				</g>
			</g>
		</g>
	</g>
	<g>
		<g>
			<g>
				<g>
					<path d="M612.255,96.66c-0.022,0.191-0.1,0.415-0.219,0.672c-1.646,3.466-5.949,4.125-7.717,4.244l0.497-3.452L612.255,96.66z"
						/>
				</g>
			</g>
		</g>
	</g>
	<g>
		<g>
			<g>
				<g>
					<path style="fill:#FF9C85;" d="M603.609,82.117c0,0-3.873,8.704-2.531,13.618c1.341,4.914,5.815,4.172,8.495,3.242
						c2.68-0.93,3.932-2.562,3.932-2.562s2.492,0.864,4.178-1.448c1.686-2.311,0.675-4.985-0.747-5.606
						c-1.422-0.621-3.125,0.397-3.125,0.397l1.346-2.528C615.157,87.231,609.652,74.3,603.609,82.117z"/>
				</g>
			</g>
		</g>
	</g>
	<g>
		<path d="M603.937,93.198c-0.113,0-0.217-0.073-0.252-0.186c-0.576-1.86,0.735-3.753,0.792-3.833
			c0.084-0.121,0.249-0.149,0.367-0.064c0.119,0.083,0.148,0.249,0.065,0.368c-0.012,0.018-1.218,1.764-0.72,3.373
			c0.043,0.139-0.034,0.287-0.174,0.33C603.989,93.194,603.963,93.198,603.937,93.198z"/>
	</g>
	<g>
		<path d="M614.182,93.84c-0.065,0-0.13-0.024-0.182-0.072c-0.106-0.1-0.11-0.267-0.011-0.373l2.371-2.513
			c0.103-0.106,0.267-0.11,0.374-0.011c0.105,0.1,0.11,0.267,0.011,0.373l-2.371,2.513C614.322,93.812,614.253,93.84,614.182,93.84z
			"/>
	</g>
	<g>
		<path d="M616.692,93.166c-0.04-0.003-1.68-0.251-1.68-0.251c-0.143-0.022-0.243-0.157-0.221-0.301
			c0.021-0.144,0.147-0.245,0.301-0.222l1.64,0.248c0.144,0.022,0.243,0.157,0.221,0.301
			C616.933,93.073,616.821,93.166,616.692,93.166z"/>
	</g>
	<g>
		<path d="M607.893,89.941c-0.178-0.021-0.28-0.153-0.262-0.297l0.207-1.626c0.018-0.145,0.149-0.25,0.295-0.229
			c0.144,0.018,0.247,0.15,0.228,0.295l-0.207,1.626C608.138,89.844,608.024,89.941,607.893,89.941z"/>
	</g>
	<g>
		<path d="M603.064,89.554c-0.183-0.024-0.282-0.158-0.262-0.303l0.239-1.623c0.021-0.144,0.155-0.242,0.3-0.223
			c0.144,0.021,0.244,0.155,0.224,0.3l-0.239,1.623C603.306,89.46,603.193,89.554,603.064,89.554z"/>
	</g>
	<g>
		<path d="M609.007,86.964c-0.093,0-0.184-0.049-0.231-0.137c-0.423-0.767-1.486-0.522-1.53-0.511
			c-0.141,0.032-0.284-0.053-0.318-0.195c-0.035-0.141,0.052-0.284,0.192-0.318c0.061-0.015,1.501-0.354,2.119,0.77
			c0.07,0.128,0.023,0.288-0.104,0.359C609.094,86.954,609.05,86.964,609.007,86.964z"/>
	</g>
	<g>
		<path d="M602.713,86.305c-0.056,0-0.112-0.018-0.16-0.054c-0.116-0.089-0.139-0.254-0.05-0.37
			c0.019-0.024,0.463-0.597,1.096-0.661c0.345-0.035,0.66,0.078,0.954,0.334c0.109,0.096,0.121,0.263,0.025,0.373
			c-0.097,0.11-0.262,0.121-0.373,0.026c-0.181-0.158-0.367-0.229-0.553-0.207c-0.402,0.04-0.727,0.452-0.729,0.456
			C602.871,86.269,602.792,86.305,602.713,86.305z"/>
	</g>
	<g>
		<path d="M612.972,90.347c0,0-2.367-1.601-2.225-4.029c0.142-2.428,0.676-3.048,0.676-3.048s-2.763-0.143-5.047-0.887
			c-1.488-0.484-2.127-1.018-2.127-1.018l-0.64,0.752c-0.698-0.032-2.291-4.26-1.241-5.011c1.05-0.751,6.672,1.208,6.672,1.208
			s5.921-1.393,9.379,2.817c3.458,4.21-0.417,9.169-0.417,9.169S616.978,88.13,612.972,90.347z"/>
	</g>
	<g>
		<path d="M606.159,96.105c-0.803,0-1.38-0.53-1.409-0.557c-0.066-0.063-0.096-0.155-0.078-0.245
			c0.018-0.089,0.081-0.164,0.166-0.196l2.264-0.847c0.068-0.026,0.143-0.022,0.206,0.009c0.065,0.031,0.114,0.086,0.137,0.154
			c0.008,0.023,0.19,0.58-0.059,1.056c-0.14,0.268-0.379,0.453-0.711,0.551C606.496,96.084,606.323,96.105,606.159,96.105z
			 M605.511,95.42c0.261,0.124,0.62,0.221,1.015,0.104c0.19-0.056,0.318-0.149,0.39-0.286c0.063-0.119,0.077-0.254,0.072-0.371
			L605.511,95.42z"/>
	</g>
	<g>
		<path style="fill:#FF9C85;" d="M561.203,120.619l-0.248-1.564c0,0-6.001-4.568-9.693-6.075c-1.553-0.634-3.73-0.105-1.894,1.951
			c0.991,1.11,1.485,2.429,1.485,2.429s-2.965-0.937-5-2.285c-1.303-0.863-3.207-4.334-4.324-3.582
			c-1.777,1.197,0.265,4.584,0.265,4.584s-0.923-4.291-2.677-2.617c-1.747,1.669,3.025,10.097,5.297,12.11
			c2.273,2.012,14.262,4.356,14.262,4.356L561.203,120.619z"/>
	</g>
	<g>
		<path d="M548.569,119.197c-2.816-0.275-5.352-2.641-5.46-2.741c-0.106-0.1-0.11-0.267-0.011-0.373
			c0.101-0.106,0.269-0.11,0.373-0.011c0.025,0.023,2.514,2.342,5.123,2.599c0.146,0.014,0.252,0.144,0.237,0.289
			C548.818,119.095,548.704,119.197,548.569,119.197z"/>
	</g>
	<g>
		<path d="M545.461,121.145c-0.056,0-0.111-0.018-0.158-0.053l-2.507-1.879c-0.117-0.087-0.141-0.253-0.053-0.37
			c0.088-0.117,0.256-0.14,0.369-0.053l2.364,1.772l5.104-3.098c0.124-0.076,0.286-0.037,0.362,0.088
			c0.076,0.125,0.036,0.287-0.089,0.363l-5.257,3.19C545.555,121.132,545.508,121.145,545.461,121.145z"/>
	</g>
	<g>
		<path d="M555.572,121.046c-0.026,0-0.053-0.004-0.079-0.012c-3.002-0.946-4.895-3.079-4.974-3.169
			c-0.097-0.109-0.085-0.276,0.024-0.372c0.108-0.096,0.277-0.085,0.372,0.024c0.019,0.021,1.88,2.113,4.735,3.014
			c0.14,0.044,0.217,0.192,0.173,0.331C555.789,120.974,555.684,121.046,555.572,121.046z"/>
	</g>
	<g>
		<path style="fill:#92B4EA;" d="M593.612,106.806c0,0-12.213,10.793-22.072,11.424c-4.754,0.304-11.131-1.965-11.131-1.965
			l-5.666,14.825c0,0,19.92,18.876,40.215,4.001C600.79,130.816,593.612,106.806,593.612,106.806z"/>
	</g>
	<g>
		<path style="fill:#E6F4FF;" d="M592.17,125.419c-0.146,0-0.264-0.118-0.264-0.264c0-1.859,3.143-11.396,3.277-11.801
			c0.046-0.138,0.194-0.213,0.334-0.168c0.139,0.046,0.214,0.195,0.168,0.334c-0.033,0.098-3.252,9.859-3.252,11.635
			C592.433,125.3,592.315,125.419,592.17,125.419z"/>
	</g>
	<g>
		<polygon style="fill:#A2C5F9;" points="606.772,106.161 602.809,132.423 606.092,132.423 609.006,105.621 		"/>
	</g>
	<g>
		<path style="fill:#E6F4FF;" d="M557.88,133.694l-2.882-0.962c-0.375-0.125-0.577-0.53-0.452-0.905l5.244-15.714
			c0.125-0.375,0.53-0.577,0.905-0.452l2.882,0.962c0.375,0.125,0.577,0.53,0.452,0.905l-5.244,15.714
			C558.66,133.617,558.255,133.819,557.88,133.694z"/>
	</g>
	<g>
		<path style="fill:#FF9C85;" d="M611.462,141.726c0,0-6.477,2.615-7.755,2.441c-1.279-0.175-5.891-0.69-6.079-1.663l1.735-2.972
			c0,0-2.58,1.081-4.327,0.175c-1.748-0.906-3.845-2.726-4.272-4.118c-0.426-1.393,1.587-1.112,1.587-1.112
			s-2.278-1.418,0.616-2.631c2.894-1.213,15.398-3.015,20.605,0.251C618.777,135.363,611.462,141.726,611.462,141.726z"/>
	</g>
	<g>
		<path d="M592.35,134.741c-0.11,0-0.213-0.069-0.25-0.179c-0.047-0.138,0.027-0.288,0.165-0.335
			c3.126-1.063,6.354-0.621,6.489-0.601c0.144,0.02,0.245,0.154,0.225,0.298c-0.021,0.144-0.144,0.249-0.299,0.224
			c-0.031-0.004-3.241-0.442-6.245,0.579C592.407,134.736,592.379,134.741,592.35,134.741z"/>
	</g>
	<g>
		<path style="fill:#FFFFFF;" d="M598.779,143.199h-33.36l-9.528-21.551h32.045c0.8,0,1.524,0.472,1.847,1.203L598.779,143.199z"/>
	</g>
	<g>
		<path style="fill:#7C576C;" d="M595.881,143.199h-33.36l-8.503-19.234c-0.482-1.091,0.317-2.318,1.509-2.318h30.826
			L595.881,143.199z"/>
	</g>
	<g>
		<path d="M609.962,145.921h-47.1c-0.752,0-1.361-0.609-1.361-1.361c0-0.752,0.609-1.361,1.361-1.361h47.1
			c0.752,0,1.361,0.609,1.361,1.361C611.323,145.312,610.714,145.921,609.962,145.921z"/>
	</g>
	<g>
		<path style="fill:#92B4EA;" d="M631.421,105.824c0,0,18.655,20.309,15.621,33.528c-3.034,13.219-39.86,4.581-39.86,4.581
			l0.401-15.45l19.142-2.998L631.421,105.824z"/>
	</g>
	<g>
		<path style="fill:#E6F4FF;" d="M633.076,126.397c-2.02,0-4.695-0.427-5.798-0.62c-0.11-0.02-0.197-0.107-0.215-0.219
			c-0.018-0.111,0.037-0.222,0.137-0.275c0.233-0.123,5.73-3.002,8.018-0.552c0.369,0.396,0.473,0.749,0.31,1.051
			C635.279,126.241,634.298,126.397,633.076,126.397z M628.2,125.394c3.215,0.502,6.56,0.692,6.863,0.136
			c0.029-0.055-0.013-0.204-0.232-0.438C633.278,123.427,629.749,124.712,628.2,125.394z"/>
	</g>
	<g>
		<path style="fill:#E6F4FF;" d="M627.324,125.781c-0.052,0-0.104-0.015-0.15-0.047c-2.03-1.404-0.465-5.588-0.397-5.766
			c0.052-0.136,0.208-0.205,0.341-0.152c0.137,0.052,0.205,0.204,0.153,0.341c-0.016,0.04-1.487,3.973,0.204,5.143
			c0.12,0.083,0.149,0.248,0.066,0.368C627.49,125.741,627.408,125.781,627.324,125.781z"/>
	</g>
	<g>
		<path style="fill:#E6F4FF;" d="M610.526,144.949h-3.038c-0.395,0-0.715-0.32-0.715-0.715v-16.566c0-0.395,0.32-0.715,0.715-0.715
			h3.038c0.395,0,0.715,0.32,0.715,0.715v16.566C611.241,144.628,610.921,144.949,610.526,144.949z"/>
	</g>
	<g>
		<path style="fill:#FFFFFF;" d="M577.712,132.423c0,1.565-1.269,2.833-2.833,2.833c-1.565,0-2.833-1.268-2.833-2.833
			c0-1.565,1.269-2.833,2.833-2.833C576.443,129.59,577.712,130.859,577.712,132.423z"/>
	</g>
	<g>
		<path style="fill:#E6F4FF;" d="M604.193,102.47c0,0-2.23,7.484-1.479,7.338c0.75-0.146,5.219-4.159,5.219-4.159
			s3.256,4.133,4.323,4.161c1.067,0.028,1.44-8.022,1.44-8.022s-1.102,2.519-5.051,3.084
			C604.696,105.437,604.193,102.47,604.193,102.47z"/>
	</g>
</g>
<g>
	<g>
		<path style="fill:#40507F;" d="M441.808,107.446c0,0-24.151,16.036-23.473,33.104c0.434,10.918,19.807,12.546,25.535,10.385
			c5.728-2.161,3.77-30.42,3.77-30.42L441.808,107.446z"/>
	</g>
	<g>
		<path style="fill:#40507F;" d="M455.228,104.57c0,0,9.941-0.024,13.689,4.213c3.749,4.237,8.296,44.912,6.551,46.985
			c-1.873,2.226-27.313,2.344-32.792,1.424c-5.479-0.92-5.479-0.92-5.479-0.92s1.941-47.303,4.609-48.826
			C445.203,105.508,455.228,104.57,455.228,104.57z"/>
	</g>
	<g>
		<path d="M462.441,91.502c0,0-0.237,4.277-2.163,4.473c-1.925,0.196-4.758-2.237-4.758-2.237l1.327-4.813L462.441,91.502z"/>
	</g>
	<g>
		<g>
			<path style="fill:#FF9C85;" d="M456.42,99.533l-0.06,6.709c0,0-1.227,1.918-5.155,2.202c-2.926,0.212-3.947-0.459-3.947-0.459
				l0.438-3.394l0.431-3.31l7.101-1.496L456.42,99.533z"/>
		</g>
	</g>
	<g>
		<g>
			<path d="M455.228,99.786c-0.019,0.183-0.09,0.399-0.201,0.646c-1.531,3.338-5.641,4.024-7.331,4.16l0.431-3.31L455.228,99.786z"
				/>
		</g>
	</g>
	<g>
		<g>
			<path style="fill:#FF9C85;" d="M446.768,85.977c0,0-3.596,8.38-2.249,13.066c1.346,4.686,5.618,3.919,8.172,2.994
				c2.553-0.924,3.73-2.502,3.73-2.502s2.396,0.795,3.98-1.439c1.584-2.233,0.583-4.78-0.786-5.355
				c-1.369-0.576-2.985,0.42-2.985,0.42l1.256-2.437C457.885,90.724,452.452,78.419,446.768,85.977z"/>
		</g>
	</g>
	<g>
		<path d="M456.848,96.765c-0.077,0-0.153-0.037-0.202-0.104c-0.078-0.112-0.052-0.266,0.06-0.344l3.042-2.146
			c0.109-0.079,0.265-0.053,0.345,0.059c0.078,0.112,0.052,0.266-0.06,0.344l-3.042,2.146
			C456.947,96.75,456.897,96.765,456.848,96.765z"/>
	</g>
	<g>
		<path d="M459.602,96.752c-0.021,0-0.042-0.003-0.063-0.008l-1.985-0.53c-0.132-0.035-0.21-0.171-0.175-0.303
			c0.035-0.131,0.166-0.209,0.302-0.175l1.985,0.53c0.132,0.035,0.21,0.171,0.175,0.303
			C459.811,96.679,459.712,96.752,459.602,96.752z"/>
	</g>
	<g>
		<path d="M452.358,89.545c-0.074,0-0.148-0.034-0.197-0.098c-0.854-1.128-1.936-0.588-1.981-0.564
			c-0.121,0.063-0.269,0.017-0.333-0.104c-0.063-0.121-0.017-0.269,0.104-0.333c0.511-0.272,1.715-0.472,2.605,0.702
			c0.082,0.109,0.061,0.264-0.048,0.346C452.463,89.528,452.41,89.545,452.358,89.545z"/>
	</g>
	<g>
		<path d="M445.854,89.172c-0.071,0-0.143-0.031-0.191-0.091c-0.086-0.106-0.07-0.262,0.036-0.348
			c0.995-0.808,2.026-0.205,2.068-0.178c0.117,0.07,0.155,0.222,0.085,0.339c-0.071,0.116-0.222,0.155-0.339,0.084
			c-0.038-0.021-0.784-0.446-1.504,0.139C445.965,89.154,445.909,89.172,445.854,89.172z"/>
	</g>
	<g>
		<path d="M447.031,96.306c-0.109,0-0.209-0.073-0.238-0.183c-0.477-1.773,0.682-4.248,0.73-4.353
			c0.06-0.122,0.204-0.177,0.329-0.117c0.123,0.058,0.176,0.206,0.118,0.329c-0.012,0.024-1.13,2.416-0.701,4.013
			c0.036,0.132-0.042,0.267-0.174,0.303C447.074,96.303,447.052,96.306,447.031,96.306z"/>
	</g>
	<g>
		<path d="M445.855,92.395c-0.022,0-0.045-0.003-0.067-0.009c-0.131-0.037-0.207-0.174-0.17-0.305l0.434-1.535
			c0.036-0.131,0.175-0.206,0.305-0.17c0.131,0.037,0.207,0.174,0.17,0.305l-0.434,1.535
			C446.062,92.324,445.963,92.395,445.855,92.395z"/>
	</g>
	<g>
		<path d="M450.1,92.516c-0.023,0-0.045-0.003-0.067-0.009c-0.131-0.037-0.207-0.174-0.17-0.305l0.434-1.535
			c0.036-0.131,0.172-0.21,0.305-0.17c0.131,0.037,0.207,0.174,0.17,0.305l-0.434,1.535C450.307,92.445,450.209,92.516,450.1,92.516
			z"/>
	</g>
	<g>
		<path d="M446.289,87.193c0,0,0.496-0.67,2.17-0.666c1.674,0.003,2.64,1.191,2.64,1.191s0.14,3.034,2.403,4.551
			c2.262,1.517,3.128,0.892,3.128,0.892l1.656-0.574l1.232-2.401l-4.729-5.189l-5.684-2.426l-2.815,3.131V87.193z"/>
	</g>
	<g>
		<path d="M448.697,98.254c-0.097,0-0.153-0.005-0.156-0.006c-0.136-0.014-0.233-0.135-0.22-0.271
			c0.014-0.137,0.136-0.234,0.271-0.221c0.053,0.004,1.391,0.123,1.972-1.087c0.059-0.123,0.209-0.175,0.329-0.116
			c0.123,0.059,0.176,0.206,0.116,0.33C450.407,98.139,449.139,98.254,448.697,98.254z"/>
	</g>
	<g>
		<path style="fill:#A37B90;" d="M461.504,95.444c1.176-1.198,2.146-4.15,1.91-5.812l-0.048-0.335c0,0,1.946-0.212,1.298-2.807
			c-0.649-2.595-3.958-6.055-9.122-7.353c-5.164-1.298-9.254,6.564-9.254,6.564s4.318-0.226,7.563,2.228
			c3.244,2.454,4.434,4.657,4.434,4.657L461.504,95.444z"/>
	</g>
	<g>
		<path style="fill:#E59E00;" d="M423.662,139.99h29.88c0.632,0,1.144-0.512,1.144-1.144v-2.752c0-0.632-0.512-1.144-1.144-1.144
			h-29.88c-0.632,0-1.144,0.512-1.144,1.144v2.752C422.518,139.477,423.03,139.99,423.662,139.99z"/>
	</g>
	<g>
		<path style="fill:#F7B369;" d="M424.959,139.99h29.88c0.632,0,1.144-0.512,1.144-1.144v-2.752c0-0.632-0.512-1.144-1.144-1.144
			h-29.88c-0.632,0-1.144,0.512-1.144,1.144v2.752C423.815,139.477,424.327,139.99,424.959,139.99z"/>
	</g>
	<g>
		<path style="fill:#FFEEBD;" d="M423.391,144.796h31.015c0.632,0,1.144-0.512,1.144-1.144V140.9c0-0.632-0.512-1.144-1.144-1.144
			h-31.015c-0.632,0-1.144,0.512-1.144,1.144v2.751C422.247,144.284,422.76,144.796,423.391,144.796z"/>
	</g>
	<g>
		<path style="fill:#FFFFFF;" d="M424.689,144.796h31.015c0.632,0,1.144-0.512,1.144-1.144V140.9c0-0.632-0.512-1.144-1.144-1.144
			h-31.015c-0.632,0-1.144,0.512-1.144,1.144v2.751C423.545,144.284,424.057,144.796,424.689,144.796z"/>
	</g>
	<g>
		<path style="fill:#40507F;" d="M464.947,106.242c0,0,27.616,9.99,25.309,30.875c-2.307,20.885-31.275,16.271-31.275,16.271
			l-0.371-17.715l8.866-4.086L464.947,106.242z"/>
	</g>
	<g>
		<path style="fill:#FF9C85;" d="M418.456,137.117c0,0-4.325-2.039-1.939-3.55c2.029-1.285,11.836,1.407,12.608,2.417
			c0.865,1.133-2.595,2.41-2.595,2.41s4.902,0.509,4.758,2.273c-0.144,1.764-4.181,1.534-4.181,1.534s3.749,0.556,2.451,2.998
			c-1.298,2.441-10.957,0.183-11.967-1.076c-1.009-1.259,0.577-1.921,0.577-1.921s-1.442-0.741-1.658-2.635
			C416.293,137.673,418.456,137.117,418.456,137.117z"/>
	</g>
	<g>
		<path d="M425.593,137.966c-0.03-0.002-6.157-0.768-6.157-0.768c-0.136-0.017-0.232-0.141-0.215-0.276
			c0.018-0.135,0.144-0.234,0.275-0.214l6.127,0.766c0.136,0.017,0.231,0.141,0.215,0.276
			C425.822,137.874,425.716,137.966,425.593,137.966z"/>
	</g>
	<g>
		<path d="M427.107,142.534c-0.003,0-7.645-0.085-7.645-0.085c-0.137-0.001-0.246-0.113-0.244-0.25
			c0.002-0.136,0.135-0.258,0.25-0.244l7.642,0.085c0.137,0.002,0.246,0.113,0.244,0.25
			C427.352,142.425,427.242,142.534,427.107,142.534z"/>
	</g>
	<g>
		<path style="fill:#F7B369;" d="M462.91,133.081c-0.089,0-0.176-0.049-0.22-0.134c-0.063-0.122-0.015-0.27,0.107-0.333
			c0.08-0.041,8.052-4.139,12.46-5.406c0.129-0.04,0.269,0.038,0.306,0.169c0.038,0.131-0.038,0.268-0.169,0.306
			c-4.361,1.254-12.291,5.33-12.37,5.371C462.987,133.072,462.948,133.081,462.91,133.081z"/>
	</g>
	<g>
		<path style="fill:#F7B369;" d="M468.867,130.21c-0.039,0-0.077-0.009-0.113-0.028c-0.093-0.047-0.146-0.148-0.132-0.251
			c0.031-0.24,0.801-5.88,4.061-6.269c0.536-0.064,0.878,0.056,1.018,0.356c0.544,1.18-3.435,4.987-4.666,6.126
			C468.988,130.188,468.927,130.21,468.867,130.21z M472.95,124.139c-0.06,0-0.128,0.004-0.208,0.014
			c-2.238,0.267-3.186,3.614-3.5,5.119c2.207-2.111,4.259-4.506,4.01-5.046C473.231,124.181,473.139,124.139,472.95,124.139z"/>
	</g>
	<g>
		<path style="fill:#F7B369;" d="M450.067,108.905c-0.964,0-1.957-0.196-2.923-0.7c-0.121-0.063-0.168-0.212-0.104-0.333
			c0.063-0.122,0.215-0.169,0.333-0.104c4.013,2.093,8.785-1.679,8.832-1.717c0.107-0.085,0.263-0.068,0.348,0.038
			c0.086,0.106,0.068,0.262-0.037,0.347C456.356,106.562,453.393,108.905,450.067,108.905z"/>
	</g>
	<g>
		<path style="fill:#F7B369;" d="M463.415,89.88c-0.086,0-0.169-0.045-0.215-0.124l-0.974-1.703
			c-0.067-0.118-0.026-0.27,0.092-0.337c0.119-0.068,0.27-0.027,0.338,0.092l0.974,1.703c0.067,0.118,0.026,0.27-0.092,0.337
			C463.499,89.87,463.457,89.88,463.415,89.88z"/>
	</g>
	<g>
		<path style="fill:#F7B369;" d="M438.601,134.579c-0.137,0-0.247-0.111-0.247-0.247v-4.691c0-0.136,0.11-0.247,0.247-0.247
			c0.137,0,0.247,0.111,0.247,0.247v4.691C438.848,134.468,438.738,134.579,438.601,134.579z"/>
	</g>
	<g>
		<path style="fill:#FF9C85;" d="M453.282,133.436c0,0-7.395-1.095-6.385,1.139c1.01,2.234,7.197,1.866,7.197,1.866l3.761-0.341
			L453.282,133.436z"/>
	</g>
	<g>
		<path style="fill:#FF9C85;" d="M459.941,135.362c0,0-2.386-0.925-3.984-1.444c-1.513-0.491-2.675-0.482-2.675-0.482l-0.653,2.36
			c0,0-5.397,0.854-9.263,2.515c-3.866,1.66-3.282,3.408-3.282,3.408s-2.48,1.398-1.515,2.482c0.965,1.084,4.952,0.287,4.952,0.287
			s-5.061,1.591-3.076,2.82c1.985,1.229,6.519,1.149,6.519,1.149s12.675,0.485,15.414-3.357
			C463.973,142.861,459.941,135.362,459.941,135.362z"/>
	</g>
	<g>
		<path d="M440.326,141.749c-0.132,0-0.251-0.091-0.281-0.225c-0.035-0.155,0.062-0.31,0.218-0.345l7.757-1.762
			c0.157-0.039,0.31,0.062,0.345,0.217c0.035,0.155-0.062,0.31-0.218,0.345l-7.757,1.762
			C440.368,141.747,440.346,141.749,440.326,141.749z"/>
	</g>
	<g>
		<path d="M443.002,144.866c-0.132,0-0.25-0.09-0.281-0.224c-0.036-0.155,0.061-0.311,0.217-0.346l4.863-1.122
			c0.15-0.037,0.31,0.061,0.346,0.216c0.036,0.155-0.061,0.311-0.217,0.346l-4.863,1.122
			C443.045,144.864,443.023,144.866,443.002,144.866z"/>
	</g>
</g>
<g>
	<g>
		<path style="fill:#DDD7E0;" d="M256.49,226.797H0.143V97.357H256.49c6.965,0,12.612,5.646,12.612,12.612v104.217
			C269.102,221.15,263.456,226.797,256.49,226.797z"/>
	</g>
	<g>
		<path style="fill:#EEECF1;" d="M267.018,231.068H0.143v-9.344h266.875c2.526,0,4.574,2.048,4.574,4.574v0.197
			C271.591,229.021,269.544,231.068,267.018,231.068z"/>
	</g>
	<g>
		<path style="fill:#C8C0CC;" d="M231.768,221.724h-26.391v-6.952c0-3.024,2.452-5.476,5.476-5.476h15.439
			c3.024,0,5.476,2.452,5.476,5.476V221.724z"/>
	</g>
	<g>
		<path style="fill:#FFFFFF;" d="M201.091,221.842h-25.566c-0.584,0-1.056-0.474-1.056-1.057c0-0.583,0.473-1.057,1.056-1.057
			h25.566c0.583,0,1.056,0.474,1.056,1.057C202.147,221.368,201.674,221.842,201.091,221.842z"/>
	</g>
</g>
<g>
	<g>
		<path style="fill:#FFFFFF;" d="M152.243,115.506H23.357c-0.605,0-1.095-0.49-1.095-1.095c0-0.605,0.49-1.095,1.095-1.095h128.887
			c0.605,0,1.095,0.49,1.095,1.095C153.338,115.016,152.848,115.506,152.243,115.506z"/>
	</g>
	<g>
		<path style="fill:#FFFFFF;" d="M143.911,123.263H23.054c-0.586,0-1.061-0.475-1.061-1.061v-0.069c0-0.586,0.475-1.061,1.061-1.061
			h120.857c0.586,0,1.061,0.475,1.061,1.061v0.069C144.972,122.788,144.497,123.263,143.911,123.263z"/>
	</g>
	<g>
		<path style="fill:#FFFFFF;" d="M126.101,131.02H22.974c-0.542,0-0.981-0.439-0.981-0.98v-0.229c0-0.542,0.439-0.981,0.981-0.981
			h103.127c0.542,0,0.98,0.439,0.98,0.981v0.229C127.082,130.581,126.643,131.02,126.101,131.02z"/>
	</g>
</g>
<g>
	<g>
		<path style="fill:#FFFFFF;" d="M152.389,153.616H23.502c-0.605,0-1.095-0.49-1.095-1.095s0.49-1.095,1.095-1.095h128.887
			c0.605,0,1.095,0.49,1.095,1.095S152.994,153.616,152.389,153.616z"/>
	</g>
	<g>
		<path style="fill:#FFFFFF;" d="M144.057,161.373H23.199c-0.586,0-1.061-0.475-1.061-1.061v-0.069c0-0.586,0.475-1.061,1.061-1.061
			h120.858c0.586,0,1.061,0.475,1.061,1.061v0.069C145.118,160.898,144.643,161.373,144.057,161.373z"/>
	</g>
	<g>
		<path style="fill:#FFFFFF;" d="M126.247,169.13H23.119c-0.542,0-0.981-0.439-0.981-0.98v-0.229c0-0.542,0.439-0.981,0.981-0.981
			h103.127c0.542,0,0.981,0.439,0.981,0.981v0.229C127.227,168.691,126.788,169.13,126.247,169.13z"/>
	</g>
</g>
<g style="opacity:0.75;">
	<ellipse style="fill:#EEECF1;" cx="398.414" cy="344.104" rx="344.018" ry="8.802"/>
</g>
<g>
	<rect x="535.901" y="212.008" style="fill:#E5E3E8;" width="207.349" height="132.968"/>
</g>
<g>
	<rect x="693.483" y="172.378" style="fill:#C8C0CC;" width="49.767" height="82.926"/>
</g>
<g>
	<g>
		<path style="fill:#B8AFBC;" d="M694.755,256.392H407.759v-99.076c0-6.418,5.203-11.621,11.621-11.621h275.375V256.392z"/>
	</g>
	<g>
		<path style="fill:#C8C0CC;" d="M680.895,256.392H393.899v-99.076c0-6.418,5.203-11.621,11.621-11.621h275.375V256.392z"/>
	</g>
	<g>
		<path style="fill:#FFFFFF;" d="M682.372,172.781c-0.002,0-288.475-1.163-288.475-1.163c-0.222-0.001-0.401-0.182-0.4-0.404
			c0.001-0.222,0.181-0.401,0.402-0.401c0.002,0,288.475,1.163,288.475,1.163c0.222,0.001,0.401,0.182,0.4,0.404
			C682.773,172.602,682.594,172.781,682.372,172.781z"/>
	</g>
</g>
<g>
	<g>
		<path d="M500.186,137.058c0,0,7.466-5.788,13.839-1.847c6.373,3.941,3.915,12.193,3.915,12.193s7.913,2.163,9.054,12.215
			c1.141,10.052-8.416,11.956-8.416,11.956l-16.488-9.767L500.186,137.058z"/>
	</g>
	<g>
		<path style="fill:#F7B369;" d="M491.376,153.883c0,0-27.621,7.345-23.827,26.85c3.051,15.682,28.854-2.383,28.854-2.383
			L491.376,153.883z"/>
	</g>
	<g>
		<path style="fill:#F7B369;" d="M479.828,189.398l0.119,4.632c0,0,11.808,2.388,21.425,1.448c9.617-0.94,13.174-2.723,13.174-2.723
			l3.49-23.622l-14.988-17.302l-9.754,2.795L479.828,189.398z"/>
	</g>
	<g>
		<path d="M490.188,141.203c0,0-2.469-2.591-1.883-6.72c0.397-2.799,1.614-3.733,1.614-3.733s-1.987-3.756,3.642-3.67
			c5.629,0.086,9.009,2.761,9.009,2.761s2.671-0.755,4.948,1.511c2.546,2.534,1.453,7.203,1.453,7.203L490.188,141.203z"/>
	</g>
	<g>
		<g>
			<g>
				<g>
					<path style="fill:#F48462;" d="M502.653,145.519l0.005,6.869c0,0-1.238,1.975-5.256,2.305
						c-2.993,0.245-3.942-1.291-3.942-1.291l0.721-6.011l7.255-1.601L502.653,145.519z"/>
				</g>
			</g>
		</g>
	</g>
	<g>
		<g>
			<g>
				<g>
					<path d="M502.642,145.1c-0.017,0.188-0.088,0.409-0.199,0.663c-1.535,3.432-6.943,4.864-8.672,5.02l0.409-3.393L502.642,145.1z
						"/>
				</g>
			</g>
		</g>
	</g>
	<g>
		<g>
			<g>
				<g>
					<path style="fill:#F48462;" d="M492.638,131.734c0,0-3.599,8.615-2.175,13.399c1.424,4.784,5.791,3.957,8.395,2.986
						c2.605-0.971,3.795-2.598,3.795-2.598s2.46,0.79,4.061-1.512c1.6-2.302,0.55-4.899-0.857-5.475
						c-1.407-0.576-3.052,0.46-3.052,0.46l1.262-2.507C504.067,136.486,498.384,123.94,492.638,131.734z"/>
				</g>
			</g>
		</g>
	</g>
	<g>
		<g>
			<g>
				<g>
					<path d="M502.805,138.993c0,0-3.659,0.837-6.319-3.19c-2.66-4.027-2.469-5.714-2.469-5.714l-2.437,4.291
						c0,0-0.645-2.915,0.479-4.813s2.35-1.542,2.35-1.542l8.161,1.817l2.303,6.445L502.805,138.993z"/>
				</g>
			</g>
		</g>
	</g>
	<g>
		<path d="M493.203,142.588c-0.11,0-0.214-0.07-0.25-0.18c-0.606-1.813,0.637-3.699,0.69-3.778c0.082-0.122,0.245-0.153,0.366-0.072
			c0.121,0.081,0.154,0.245,0.073,0.366c-0.012,0.017-1.151,1.753-0.629,3.316c0.047,0.139-0.028,0.288-0.166,0.335
			C493.259,142.584,493.23,142.588,493.203,142.588z"/>
	</g>
	<g>
		<path d="M503.254,142.988c-0.064,0-0.126-0.022-0.177-0.068c-0.108-0.098-0.117-0.265-0.02-0.373l2.268-2.515
			c0.1-0.109,0.264-0.117,0.373-0.019c0.108,0.098,0.117,0.265,0.02,0.373l-2.268,2.515
			C503.397,142.958,503.326,142.988,503.254,142.988z"/>
	</g>
	<g>
		<path d="M505.698,142.272c-0.033-0.003-1.646-0.21-1.646-0.21c-0.145-0.019-0.247-0.151-0.228-0.295
			c0.018-0.145,0.15-0.249,0.295-0.228l1.612,0.207c0.146,0.019,0.247,0.151,0.228,0.295
			C505.943,142.175,505.829,142.272,505.698,142.272z"/>
	</g>
	<g>
		<path d="M496.383,145.007c-0.665,0-1.342-0.23-1.46-0.272c-0.089-0.032-0.154-0.109-0.171-0.203
			c-0.017-0.094,0.018-0.189,0.092-0.249l2.251-1.862c0.061-0.051,0.139-0.072,0.218-0.056c0.077,0.015,0.144,0.063,0.182,0.132
			c0.029,0.052,0.701,1.299,0.017,2.102C497.245,144.909,496.816,145.007,496.383,145.007z M495.566,144.37
			c0.533,0.123,1.27,0.204,1.543-0.115c0.289-0.338,0.17-0.872,0.051-1.204L495.566,144.37z"/>
	</g>
	<g>
		<path d="M491.376,135.626c-0.123,0-0.233-0.087-0.259-0.212c-0.028-0.143,0.063-0.282,0.207-0.311l1.512-0.303
			c0.147-0.032,0.281,0.064,0.311,0.207c0.028,0.143-0.064,0.282-0.207,0.311l-1.512,0.303
			C491.41,135.624,491.392,135.626,491.376,135.626z"/>
	</g>
	<g>
		<path d="M497.715,136.461c-0.038,0-0.076-0.008-0.113-0.025l-2.523-1.197c-0.132-0.063-0.188-0.22-0.125-0.352
			c0.063-0.132,0.219-0.187,0.352-0.126l2.523,1.197c0.132,0.063,0.188,0.22,0.125,0.352
			C497.908,136.406,497.813,136.461,497.715,136.461z"/>
	</g>
	<g>
		<path d="M491.466,139.137c-0.023,0-0.047-0.003-0.071-0.01c-0.141-0.039-0.223-0.185-0.183-0.325l0.396-1.42l-0.396-0.46
			c-0.095-0.111-0.083-0.277,0.028-0.373c0.11-0.095,0.276-0.083,0.372,0.028l0.488,0.568c0.058,0.067,0.078,0.158,0.054,0.243
			l-0.435,1.556C491.687,139.061,491.581,139.137,491.466,139.137z"/>
	</g>
	<g>
		<path d="M495.798,139.441c-0.023,0-0.047-0.003-0.071-0.01c-0.14-0.039-0.223-0.185-0.183-0.325l0.395-1.417l-0.577-0.64
			c-0.098-0.108-0.089-0.275,0.02-0.373c0.108-0.096,0.274-0.089,0.373,0.02l0.674,0.747c0.061,0.067,0.082,0.161,0.058,0.248
			l-0.434,1.556C496.019,139.364,495.914,139.441,495.798,139.441z"/>
	</g>
	<g>
		<path style="fill:#F7B369;" d="M493.295,154.626c0,0-0.533-3.68,0.477-3.843c1.01-0.163,2.15,0.529,4.511,0.106
			c2.361-0.423,3.628-1.189,4.373-1.188c0.745,0.001,0.222,4.567,0.222,4.567l-5.893,2.006L493.295,154.626z"/>
	</g>
	<g>
		<path style="fill:#F7B369;" d="M492.132,170.469l1.327-17.068c0,0-11.264-0.859-11.264,29.884
			C482.195,195.032,492.132,170.469,492.132,170.469z"/>
	</g>
	<g>
		<path style="fill:#DD7258;" d="M479.028,181.222c0,0,4.704-7.136,8.799-6.672c4.095,0.463,7.184,4.725,7.184,4.725
			L479.028,181.222z"/>
	</g>
	<g>
		<g>
			<path style="fill:#F48462;" d="M498.584,179.125c0,0-11.566-3.247-13.227-2.778c-1.661,0.469-8.091,5.804-7.694,7.089
				c0.397,1.286,1.882,0.92,1.882,0.92s-1.391,0.93-0.857,1.807c0.534,0.877,2.216,0.531,2.216,0.531s-1.17,0.712,0.346,1.296
				c1.516,0.584,5.58-0.935,5.58-0.935s2.468,2.036,6.554,1.802c4.086-0.234,5.402-1.228,5.402-1.228L498.584,179.125z"/>
		</g>
	</g>
	<g>
		<path style="fill:#F7B369;" d="M502.249,151.851c0,0,16.693,0.186,25.416,13.419c8.723,13.234,2.426,25.547-10.652,28.344
			c-13.079,2.798-20.011-0.639-20.011-0.639l0.713-15.021l8.739-1.526l6.383-8.201L502.249,151.851z"/>
	</g>
	<g>
		<path style="fill:#FFFFFF;" d="M506.454,176.693c-0.121,0-0.23-0.083-0.258-0.206c-0.032-0.143,0.058-0.284,0.2-0.316
			c0.091-0.02,9.15-2.047,14.418-2.183c0.125-0.02,0.268,0.112,0.271,0.257c0.004,0.146-0.111,0.267-0.257,0.271
			c-5.217,0.134-14.226,2.15-14.316,2.17C506.492,176.691,506.472,176.693,506.454,176.693z"/>
	</g>
	<g>
		<path style="fill:#FFFFFF;" d="M514.089,175.242c-0.078,0-0.154-0.035-0.206-0.099c-0.075-0.093-0.077-0.226-0.007-0.322
			c0.385-0.521,3.813-5.062,5.709-4.116c0.376,0.189,0.427,0.466,0.423,0.614c-0.029,1.243-4.456,3.299-5.811,3.9
			C514.161,175.235,514.125,175.242,514.089,175.242z M519.001,171.101c-1.044,0-2.775,1.664-4.031,3.181
			c2.312-1.105,4.497-2.432,4.511-2.975c0.001-0.041-0.044-0.085-0.132-0.129C519.244,171.126,519.127,171.101,519.001,171.101z"/>
	</g>
	<g>
		<path style="fill:#FFFFFF;" d="M498.338,153.29c-0.132,0-0.246-0.099-0.262-0.232c-0.018-0.145,0.085-0.276,0.23-0.294
			c1.077-0.13,4.277-0.631,4.31-0.636c0.144-0.026,0.279,0.076,0.302,0.22c0.022,0.144-0.076,0.279-0.22,0.302
			c-0.032,0.005-3.242,0.508-4.329,0.639C498.358,153.289,498.347,153.29,498.338,153.29z"/>
	</g>
	<g>
		<path d="M479.545,184.621c-0.08,0-0.158-0.036-0.211-0.105c-0.088-0.116-0.065-0.282,0.052-0.37l4.858-3.675
			c0.115-0.089,0.28-0.066,0.37,0.051c0.088,0.116,0.064,0.282-0.052,0.37l-4.858,3.675
			C479.656,184.603,479.6,184.621,479.545,184.621z"/>
	</g>
	<g>
		<path d="M480.904,186.959c-0.078,0-0.156-0.035-0.208-0.102c-0.09-0.115-0.069-0.281,0.046-0.371l4.814-3.749
			c0.114-0.089,0.281-0.068,0.37,0.046c0.09,0.115,0.069,0.281-0.046,0.371l-4.814,3.75
			C481.018,186.941,480.961,186.959,480.904,186.959z"/>
	</g>
	<g>
		<path style="fill:#FFFFFF;" d="M483.492,174.686c-0.122,0-0.232-0.085-0.259-0.21c-1.277-6.084,1.989-12.995,2.129-13.286
			c0.064-0.131,0.22-0.187,0.353-0.124c0.132,0.063,0.186,0.221,0.124,0.353c-0.033,0.07-3.329,7.042-2.088,12.949
			c0.029,0.143-0.061,0.283-0.204,0.313C483.528,174.684,483.51,174.686,483.492,174.686z"/>
	</g>
</g>
<g>
	<g>
		<path style="fill:#B8AFBC;" d="M649.067,297.761H362.071v-99.076c0-6.418,5.203-11.621,11.62-11.621h275.375V297.761z"/>
	</g>
	<g>
		<path style="fill:#D0C9D3;" d="M635.206,297.761H348.21v-99.076c0-6.418,5.203-11.621,11.621-11.621h275.375V297.761z"/>
	</g>
	<g>
		<path style="fill:#FFFFFF;" d="M636.683,214.149c-0.002,0-288.475-1.162-288.475-1.162c-0.222-0.001-0.401-0.182-0.4-0.404
			c0.001-0.222,0.181-0.4,0.402-0.4c0.002,0,288.475,1.162,288.475,1.162c0.222,0.001,0.401,0.182,0.4,0.404
			C637.085,213.971,636.905,214.149,636.683,214.149z"/>
	</g>
</g>
<g>
	<g>
		<rect x="223.834" y="0.489" style="fill:#DCD8E2;" width="3.933" height="39.414"/>
	</g>
	<g>
		<polygon style="fill:#DCD8E2;" points="225.802,17.441 235.178,33.681 244.554,49.92 225.802,49.92 207.05,49.92 216.426,33.681 
					"/>
	</g>
	<g>
		<ellipse style="fill:#EEECF1;" cx="225.802" cy="49.92" rx="18.752" ry="1.291"/>
	</g>
</g>
<g>
	<g>
		<rect x="495.552" y="0.489" style="fill:#DCD8E2;" width="3.933" height="39.414"/>
	</g>
	<g>
		<polygon style="fill:#DCD8E2;" points="497.52,17.441 506.896,33.681 516.272,49.92 497.52,49.92 478.769,49.92 488.145,33.681 		
			"/>
	</g>
	<g>
		<ellipse style="fill:#EEECF1;" cx="497.52" cy="49.92" rx="18.752" ry="1.291"/>
	</g>
</g>
<g>
	<g>
		<g>
			<path d="M528.488,183.621c0,0-6.991,5.273-7.512,11.677c-0.788,9.693,10.238,5.452,11.449-0.727
				C533.637,188.393,528.488,183.621,528.488,183.621z"/>
		</g>
		<g>
			<polygon style="fill:#8E657D;" points="557.202,234.129 560.871,245.598 555.374,246.245 553.186,236.633 			"/>
		</g>
		<g>
			<path style="fill:#5C69A5;" d="M515.677,233.299v4.868c0,0,12.337,2.827,22.463,2.1c10.126-0.727,13.91-2.504,13.91-2.504
				l4.304-24.716l-12.936-18.205l-10.579-0.857l-25.795,18.698l6.3,17.083L515.677,233.299z"/>
		</g>
		<g>
			<path d="M527.861,182.961c0,0-4.668-14.72,3.925-14.741c5.915-0.014,13.734,4.156,14.946,7.306
				c1.212,3.15-0.677,8.095-0.677,8.095L527.861,182.961z"/>
		</g>
		<g>
			<polygon style="fill:#68B6D8;" points="523.876,226.86 528.664,204.567 545.308,204.567 541.556,228.176 			"/>
		</g>
		<g>
			<path style="fill:#A37B90;" d="M541.546,251.578c-2.355,1.468-5.154,0-5.154,0s-7.146-10.57-10.737-24.44
				c-0.058-0.218-0.109-0.436-0.16-0.654c-0.705-2.799-1.25-5.721-1.556-8.716c-0.029-0.196-0.044-0.385-0.065-0.582
				c-0.327-3.526-0.523-6.462-0.611-8.905h2.711l0.8-3.715h1.941c0.073,1.163,0.167,2.406,0.298,3.715
				c0.24,2.421,0.589,5.06,1.09,7.815c0.691,3.744,1.665,7.698,3.053,11.595c0.145,0.422,0.298,0.843,0.458,1.265
				c6.143,16.16,9.152,18.093,9.152,18.093S544.127,249.957,541.546,251.578z"/>
		</g>
		<g>
			<polygon style="fill:#FFFFFF;" points="543.414,204.567 539.663,228.178 533.157,227.691 525.655,227.138 521.984,226.862 
				522.224,225.757 523.94,217.768 525.975,208.281 526.775,204.567 			"/>
		</g>
		<g>
			<polygon style="fill:#E89442;" points="515.519,223.79 519.72,208.282 533.961,208.282 529.935,226.984 			"/>
		</g>
		<g>
			<polygon style="fill:#F7B369;" points="531.783,208.281 530.104,216.096 527.763,226.986 525.495,226.484 522.224,225.757 
				513.341,223.787 517.543,208.281 			"/>
		</g>
		<g>
			<path style="fill:#F28F7C;" d="M516.092,221.529c0,0,5.342-0.554,6.473-0.554s2.652,2.654,2.652,2.654l3.388,0.978l-3.873,10.895
				c0,0-8.058,1.047-11.389-2.827C512.094,231.221,516.092,221.529,516.092,221.529z"/>
		</g>
		<g>
			<path style="fill:#5C69A5;" d="M532.838,194.471c0,0-10.125,0.242-20.383,8.804c-10.258,8.562-14.7,17.043-12.6,24.474
				c2.1,7.431,15.266,7.754,15.266,7.754l3.877-15.346l-10.137-6.623L532.838,194.471z"/>
		</g>
		<g>
			<path style="fill:#FF9C85;" d="M538.302,224.113c0,0-3.15-1.683-4.685-2.084c-1.453-0.38-2.549-0.309-2.549-0.309l-0.487,2.261
				c0,0-5.042,1.1-8.596,2.878c-3.554,1.777-2.908,3.392-2.908,3.392s-2.262,1.454-1.292,2.423c0.969,0.969,4.685,0,4.685,0
				s-4.685,1.777-2.746,2.827c1.938,1.05,6.209,0.727,6.209,0.727s9.299,1.615,12.368-1.615
				C541.371,231.383,538.302,224.113,538.302,224.113z"/>
		</g>
		<g>
			<g>
				<g>
					<g>
						<path style="fill:#FF9C85;" d="M540.835,187.831l-0.181,7.215c0,0-1.353,2.041-5.582,2.278
							c-3.151,0.177-4.105-1.463-4.105-1.463l0.92-6.294l7.663-1.485L540.835,187.831z"/>
					</g>
				</g>
			</g>
		</g>
		<g>
			<path style="fill:#5C69A5;" d="M540.24,194.471c0,0,17.527,0.646,26.331,14.781c8.804,14.135,1.858,26.897-11.954,29.481
				c-13.812,2.585-21-1.212-21-1.212l3.291-16.073l7.084-1.05l6.926-8.441L540.24,194.471z"/>
		</g>
		<g>
			<path style="fill:#A37B90;" d="M528.716,204.567h-1.941l-0.8,3.715h-2.711c-0.393-10.337,0.981-11.871,0.981-11.871l4.362-1.301
				C528.607,195.109,528.367,198.897,528.716,204.567z"/>
		</g>
		<g>
			<g>
				<g>
					<g>
						<path d="M540.835,187.391c-0.023,0.197-0.104,0.427-0.227,0.691c-1.705,3.563-7.423,4.921-9.243,5.038l0.522-3.552
							L540.835,187.391z"/>
					</g>
				</g>
			</g>
		</g>
		<g>
			<g>
				<g>
					<g>
						<path style="fill:#FF9C85;" d="M530.69,173.082c0,0-4.013,8.951-2.647,14.014c1.367,5.063,5.975,4.312,8.737,3.363
							c2.762-0.95,4.056-2.626,4.056-2.626s2.563,0.896,4.306-1.478c1.743-2.374,0.71-5.13-0.752-5.774
							c-1.462-0.643-3.218,0.4-3.218,0.4l1.393-2.599C542.565,178.382,536.935,165.052,530.69,173.082z"/>
					</g>
				</g>
			</g>
		</g>
		<g>
			<g>
				<g>
					<g>
						<path d="M541.172,180.981c0,0-3.865,0.78-6.55-3.521c-2.685-4.301-2.439-6.068-2.439-6.068l-2.675,4.44
							c0,0-0.598-3.079,0.633-5.042c1.232-1.963,2.51-1.556,2.51-1.556l8.522,2.129l2.244,6.831L541.172,180.981z"/>
					</g>
				</g>
			</g>
		</g>
		<g>
			<path d="M530.997,184.493c-0.117,0-0.225-0.075-0.261-0.192c-0.587-1.917,0.77-3.863,0.827-3.945
				c0.089-0.123,0.259-0.151,0.38-0.065c0.123,0.087,0.152,0.257,0.065,0.38c-0.013,0.018-1.259,1.812-0.751,3.471
				c0.044,0.144-0.037,0.296-0.181,0.34C531.051,184.489,531.023,184.493,530.997,184.493z"/>
		</g>
		<g>
			<path d="M541.543,185.184c-0.067,0-0.135-0.025-0.188-0.075c-0.109-0.104-0.114-0.276-0.01-0.385l2.449-2.581
				c0.103-0.109,0.274-0.114,0.385-0.01c0.109,0.104,0.114,0.276,0.01,0.385l-2.449,2.581
				C541.687,185.156,541.615,185.184,541.543,185.184z"/>
		</g>
		<g>
			<path d="M544.129,184.498c-0.042-0.003-1.729-0.264-1.729-0.264c-0.148-0.023-0.25-0.163-0.227-0.311
				c0.023-0.148,0.154-0.248,0.312-0.228l1.688,0.261c0.148,0.023,0.25,0.163,0.227,0.311
				C544.378,184.402,544.261,184.498,544.129,184.498z"/>
		</g>
		<g>
			<path d="M529.266,177.131c-0.131,0-0.245-0.093-0.268-0.225c-0.025-0.149,0.073-0.29,0.222-0.316l1.596-0.277
				c0.148-0.026,0.289,0.074,0.315,0.222c0.025,0.148-0.073,0.29-0.222,0.315l-1.596,0.277
				C529.298,177.13,529.282,177.131,529.266,177.131z"/>
		</g>
		<g>
			<path d="M535.901,178.18c-0.042,0-0.084-0.009-0.123-0.029l-2.618-1.326c-0.135-0.068-0.188-0.232-0.12-0.366
				c0.068-0.135,0.234-0.188,0.366-0.12l2.618,1.326c0.135,0.068,0.189,0.232,0.12,0.366
				C536.096,178.125,536.001,178.18,535.901,178.18z"/>
		</g>
		<g>
			<path d="M546.055,183.621c0,0,7.919,3.613,7.131,11.488c-0.787,7.875-7.13,7.624-10.745,4.436
				c-3.76-3.316-1.605-11.713-1.605-11.713S545.625,188.635,546.055,183.621z"/>
		</g>
		<g>
			<path d="M529.266,180.821c-0.026,0-0.054-0.004-0.08-0.012c-0.143-0.044-0.225-0.197-0.181-0.341l0.455-1.483l-0.405-0.497
				c-0.096-0.117-0.078-0.288,0.038-0.383c0.118-0.095,0.289-0.077,0.384,0.038l0.498,0.61c0.058,0.07,0.076,0.165,0.05,0.252
				l-0.498,1.623C529.491,180.746,529.383,180.821,529.266,180.821z"/>
		</g>
		<g>
			<path d="M533.806,181.257c-0.026,0-0.054-0.004-0.08-0.012c-0.144-0.044-0.225-0.197-0.181-0.341l0.455-1.479l-0.591-0.689
				c-0.098-0.114-0.085-0.286,0.029-0.384c0.115-0.098,0.287-0.084,0.385,0.03l0.689,0.803c0.061,0.071,0.081,0.168,0.054,0.257
				l-0.499,1.623C534.031,181.182,533.923,181.257,533.806,181.257z"/>
		</g>
		<g>
			<path d="M525.217,223.901c-0.017,0-0.034-0.001-0.051-0.005l-5.089-0.97c-0.149-0.028-0.245-0.171-0.217-0.318
				c0.027-0.147,0.174-0.254,0.318-0.217l5.089,0.97c0.148,0.028,0.245,0.171,0.217,0.318
				C525.46,223.811,525.345,223.901,525.217,223.901z"/>
		</g>
		<g>
			<path d="M530.582,224.255c-0.118,0-0.227-0.076-0.262-0.195c-0.042-0.145,0.04-0.296,0.185-0.339l2.833-0.838
				c0.144-0.037,0.296,0.04,0.339,0.185c0.042,0.145-0.04,0.296-0.185,0.339l-2.833,0.838
				C530.634,224.251,530.607,224.255,530.582,224.255z"/>
		</g>
		<g>
			<path d="M519.293,230.268c-0.118,0-0.228-0.077-0.262-0.196c-0.042-0.146,0.041-0.296,0.186-0.338l7.216-2.086
				c0.144-0.042,0.297,0.041,0.338,0.185c0.042,0.146-0.041,0.296-0.185,0.338l-7.216,2.086
				C519.344,230.265,519.318,230.268,519.293,230.268z"/>
		</g>
		<g>
			<path d="M521.986,233.061c-0.118,0-0.227-0.077-0.262-0.196c-0.042-0.145,0.041-0.296,0.186-0.338l4.522-1.324
				c0.144-0.044,0.296,0.041,0.338,0.186c0.042,0.145-0.041,0.296-0.185,0.338l-4.522,1.324
				C522.037,233.058,522.011,233.061,521.986,233.061z"/>
		</g>
		<g>
			<path style="fill:#FFFFFF;" d="M535.138,197.565c-2.725,0-4.336-1.483-4.359-1.506c-0.109-0.103-0.113-0.275-0.011-0.385
				c0.104-0.109,0.276-0.114,0.386-0.011c0.129,0.122,3.237,2.95,8.269,0.124c0.132-0.072,0.297-0.028,0.371,0.104
				c0.074,0.131,0.027,0.297-0.104,0.371C537.959,197.234,536.425,197.565,535.138,197.565z"/>
		</g>
		<g>
			<path style="fill:#FFFFFF;" d="M543.992,220.67c-0.128,0-0.241-0.09-0.268-0.22c-0.029-0.147,0.067-0.291,0.215-0.32
				c0.096-0.019,9.665-1.902,15.201-1.902c0.15,0,0.273,0.122,0.273,0.273s-0.122,0.273-0.273,0.273c-5.482,0-15,1.873-15.096,1.892
				C544.027,220.668,544.01,220.67,543.992,220.67z"/>
		</g>
		<g>
			<path style="fill:#FFFFFF;" d="M552.051,219.352c-0.083,0-0.164-0.038-0.217-0.107c-0.075-0.099-0.074-0.234,0.002-0.332
				c0.418-0.537,4.14-5.223,6.1-4.167c0.368,0.196,0.435,0.463,0.426,0.651c-0.064,1.302-4.767,3.341-6.207,3.934
				C552.121,219.346,552.086,219.352,552.051,219.352z M557.287,215.136c-1.105,0-2.96,1.698-4.31,3.25
				c2.465-1.1,4.811-2.442,4.839-3.015c0.001-0.018,0.004-0.069-0.137-0.145C557.563,215.165,557.431,215.136,557.287,215.136z"/>
		</g>
		<g>
			<path style="fill:#FFFFFF;" d="M515.136,217.905c-0.071,0-0.142-0.027-0.196-0.083c-0.032-0.033-3.228-3.325-6.143-4.025
				c-0.147-0.035-0.236-0.182-0.201-0.328c0.034-0.146,0.179-0.242,0.328-0.201c3.071,0.737,6.274,4.036,6.409,4.176
				c0.105,0.108,0.102,0.281-0.007,0.386C515.272,217.88,515.205,217.905,515.136,217.905z"/>
		</g>
		<g>
			<path style="fill:#FFFFFF;" d="M511.999,215.136c-0.07,0-0.14-0.027-0.192-0.079c-0.213-0.211-2.082-2.1-2.016-3.313
				c0.016-0.288,0.139-0.531,0.353-0.703c0.216-0.169,0.459-0.21,0.68-0.123c0.904,0.364,1.335,3.085,1.445,3.91
				c0.016,0.115-0.045,0.229-0.149,0.28C512.082,215.127,512.04,215.136,511.999,215.136z M510.591,211.416
				c-0.022,0-0.055,0.01-0.106,0.052c-0.094,0.074-0.142,0.171-0.148,0.305c-0.032,0.588,0.657,1.546,1.248,2.237
				c-0.242-1.265-0.624-2.45-0.964-2.587C510.613,211.42,510.604,211.416,510.591,211.416z"/>
		</g>
	</g>
	<g>
		<path d="M532.201,186.879c-0.137,0-0.222-0.009-0.235-0.011c-0.149-0.018-0.256-0.153-0.238-0.302
			c0.018-0.149,0.152-0.253,0.302-0.24c0.015,0.003,1.202,0.126,2.08-0.782c0.105-0.107,0.278-0.111,0.386-0.006
			c0.108,0.104,0.111,0.277,0.007,0.385C533.678,186.774,532.656,186.879,532.201,186.879z"/>
	</g>
</g>
<g>
	<rect x="662.148" y="213.166" style="fill:#B8AFBC;" width="58.507" height="82.387"/>
</g>
<g>
	<rect x="649.241" y="213.166" style="fill:#D0C9D3;" width="58.507" height="82.387"/>
</g>
<g>
	<g>
		<g>
			<path d="M380.056,171.749c0,0,11.748,18.878-4.112,20.933C360.084,194.737,380.056,171.749,380.056,171.749z"/>
		</g>
		<g>
			<path style="fill:#68B6D8;" d="M349.143,231.374c0,0,2.767-28.694,13.053-33.627c10.286-4.933,26.926,0.141,26.926,0.141
				l-0.747,38.377L349.143,231.374z"/>
		</g>
		<g>
			<g>
				<g>
					<g>
						<path style="fill:#FF9C85;" d="M375.816,189.069l0.944,6.042c0,0-0.961,1.961-4.912,2.976
							c-2.944,0.756-4.082,0.351-4.082,0.351l-0.063-3.136l-0.057-3.059l6.997-2.718L375.816,189.069z"/>
					</g>
				</g>
			</g>
		</g>
		<g>
			<g>
				<g>
					<g>
						<path d="M374.647,189.544c0.014,0.19-0.019,0.423-0.087,0.695c-0.952,3.684-5.018,5.134-6.717,5.581l-0.165-3.454
							L374.647,189.544z"/>
					</g>
				</g>
			</g>
		</g>
		<g>
			<g>
				<g>
					<g>
						<path style="fill:#FF9C85;" d="M363.498,177.006c0,0-2.137,9.203,0.092,13.735c2.229,4.533,6.445,2.97,8.88,1.561
							c2.435-1.409,3.348-3.232,3.348-3.232s2.588,0.373,3.796-2.194c1.208-2.567-0.279-4.981-1.78-5.318
							c-1.501-0.337-2.968,0.974-2.968,0.974l0.836-2.714C375.702,179.817,367.914,168.26,363.498,177.006z"/>
					</g>
				</g>
			</g>
		</g>
		<g>
			<path d="M365.848,187.741c-0.094,0-0.185-0.051-0.233-0.14c-0.909-1.705,0.013-3.795,0.052-3.883
				c0.062-0.133,0.217-0.19,0.35-0.132c0.133,0.06,0.192,0.216,0.133,0.349c-0.009,0.019-0.855,1.944-0.067,3.417
				c0.068,0.129,0.02,0.288-0.109,0.357C365.933,187.73,365.89,187.741,365.848,187.741z"/>
		</g>
		<g>
			<path d="M375.944,186.442c-0.049,0-0.098-0.013-0.142-0.041c-0.123-0.079-0.159-0.242-0.081-0.365l1.837-2.892
				c0.077-0.123,0.242-0.158,0.364-0.081c0.123,0.079,0.159,0.242,0.081,0.365l-1.837,2.892
				C376.117,186.398,376.031,186.442,375.944,186.442z"/>
		</g>
		<g>
			<path d="M376.618,185.381c-0.142,0-0.258-0.111-0.264-0.253c-0.006-0.146,0.107-0.268,0.253-0.274l1.645-0.066
				c0.152,0,0.268,0.111,0.274,0.253c0.006,0.146-0.107,0.269-0.253,0.275l-1.645,0.066
				C376.625,185.381,376.621,185.381,376.618,185.381z"/>
		</g>
		<g>
			<path style="fill:#FFFFFF;" d="M363.849,226.448c-0.08,0-0.159-0.036-0.211-0.104c-0.02-0.026-1.991-2.66-3.558-6.546
				c-2.417-5.998-0.109-14.636-0.01-15c0.039-0.14,0.18-0.221,0.324-0.186c0.141,0.038,0.224,0.184,0.186,0.324
				c-0.024,0.088-2.36,8.833-0.01,14.664c1.538,3.817,3.47,6.399,3.489,6.425c0.088,0.116,0.064,0.282-0.052,0.37
				C363.961,226.432,363.905,226.448,363.849,226.448z"/>
		</g>
		<g>
			<path d="M368.762,189.863c-0.736,0-1.375-0.434-1.413-0.46c-0.075-0.052-0.118-0.139-0.113-0.23
				c0.004-0.091,0.055-0.173,0.135-0.218l3.11-1.746c0.085-0.047,0.191-0.044,0.272,0.009c0.083,0.053,0.129,0.148,0.119,0.246
				c-0.005,0.053-0.134,1.313-1.115,2.066C369.436,189.777,369.09,189.863,368.762,189.863z M368.053,189.177
				c0.372,0.151,0.932,0.278,1.383-0.065c0.426-0.328,0.657-0.789,0.779-1.148L368.053,189.177z"/>
		</g>
		<g>
			<path d="M369.979,180.507c-0.078,0-0.155-0.035-0.208-0.101c-0.532-0.681-1.535-0.272-1.576-0.254
				c-0.139,0.056-0.29-0.006-0.347-0.14c-0.057-0.134,0.006-0.288,0.14-0.346c0.057-0.025,1.411-0.588,2.199,0.414
				c0.09,0.115,0.069,0.281-0.045,0.371C370.094,180.488,370.037,180.507,369.979,180.507z"/>
		</g>
		<g>
			<path d="M363.243,180.79c-0.057,0-0.113-0.018-0.161-0.055c-0.115-0.089-0.137-0.254-0.048-0.37
				c0.023-0.031,0.595-0.763,1.343-0.814c0.363-0.023,0.707,0.113,1.008,0.41c0.104,0.103,0.105,0.27,0.002,0.373
				c-0.103,0.104-0.268,0.105-0.373,0.002c-0.19-0.188-0.395-0.269-0.599-0.258c-0.51,0.033-0.958,0.604-0.963,0.61
				C363.4,180.755,363.322,180.79,363.243,180.79z"/>
		</g>
		<g>
			<path d="M364.314,184.356c-0.141,0-0.258-0.111-0.264-0.252l-0.067-1.509l-0.657-0.555c-0.112-0.094-0.126-0.26-0.032-0.372
				c0.096-0.112,0.263-0.124,0.372-0.031l0.746,0.629c0.057,0.047,0.091,0.116,0.094,0.19l0.072,1.624
				c0.007,0.146-0.106,0.269-0.252,0.275C364.322,184.356,364.318,184.356,364.314,184.356z"/>
		</g>
		<g>
			<path d="M369.089,183.828c-0.139,0-0.255-0.107-0.264-0.248l-0.095-1.492l-0.942-0.627c-0.121-0.081-0.154-0.245-0.073-0.366
				c0.081-0.122,0.246-0.155,0.366-0.073l1.051,0.699c0.068,0.045,0.111,0.121,0.117,0.203l0.104,1.623
				c0.009,0.145-0.102,0.271-0.247,0.28C369.099,183.827,369.094,183.828,369.089,183.828z"/>
		</g>
		<g>
			<path d="M374.543,182.464c0,0-4.289-0.573-6.118-3.434c-1.83-2.861-1.731-4.226-1.731-4.226s-2.116,1.229-2.866,2.83
				c-0.75,1.601-0.878,2.452-0.878,2.452s-0.71-3.44-0.346-4.493c0.364-1.053,2.364-6.956,10.595-6.235
				C385.682,170.451,380.604,180.584,374.543,182.464z"/>
		</g>
		<g>
			<path style="fill:#FF9C85;" d="M376.043,221.329c0,0-0.38-0.167-1.992-0.743c-1.527-0.546-7.033-0.128-7.033-0.128
				s-4.79,0.707-8.78,2.282c-3.99,1.575-3.448,3.373-3.448,3.373s-2.57,1.35-1.619,2.484c0.951,1.134,5.038,0.443,5.038,0.443
				s-5.206,1.468-3.221,2.781c1.985,1.313,8.621-0.824,8.621-0.824s9.838,4.545,13.445,1.361
				C380.66,229.173,376.043,221.329,376.043,221.329z"/>
		</g>
		<g>
			<path style="fill:#68B6D8;" d="M374.012,219.929l-4.015,16.058c0,0,26.141,20.554,37.061,4.438
				c10.919-16.116-9.395-40.268-17.937-42.538c-8.541-2.27-4.226,23.688-4.226,23.688L374.012,219.929z"/>
		</g>
		<g>
			<path style="fill:#FFFFFF;" d="M393.565,222.435c-0.032,0-0.063-0.005-0.096-0.018c-5.552-2.147-16.73-1.794-16.843-1.79
				c-0.147,0.012-0.268-0.109-0.273-0.255c-0.005-0.146,0.109-0.268,0.255-0.273c0.461-0.015,11.397-0.36,17.052,1.825
				c0.136,0.053,0.203,0.205,0.15,0.342C393.771,222.371,393.671,222.435,393.565,222.435z"/>
		</g>
		<g>
			<path style="fill:#FFFFFF;" d="M385.092,220.85c-0.109,0-0.21-0.067-0.248-0.173c-0.042-0.115,0.001-0.245,0.103-0.312
				c0.613-0.401,6.041-3.877,7.985-2.492c0.354,0.252,0.377,0.515,0.332,0.691c-0.309,1.222-6.309,2.058-8.141,2.284
				C385.113,220.85,385.102,220.85,385.092,220.85z M391.733,218.071c-1.47,0-3.847,1.168-5.433,2.085
				c3.52-0.515,6.412-1.271,6.452-1.724c0,0-0.012-0.048-0.127-0.13C392.399,218.142,392.094,218.071,391.733,218.071z"/>
		</g>
		<g>
			<path style="fill:#FFFFFF;" d="M367.974,198.704c-0.117,0-0.191-0.002-0.216-0.002c-0.146-0.004-0.261-0.126-0.256-0.272
				c0.004-0.146,0.124-0.27,0.272-0.256c0.061,0.01,6.253,0.139,8.775-3.222c0.088-0.116,0.256-0.139,0.369-0.053
				c0.117,0.088,0.141,0.253,0.053,0.37C374.529,198.523,369.138,198.704,367.974,198.704z"/>
		</g>
		<g>
			<path style="fill:#FFFFFF;" d="M354.956,231.523h-33.36l-9.528-21.551h32.045c0.799,0,1.524,0.472,1.847,1.203L354.956,231.523z"
				/>
		</g>
		<g>
			<path style="fill:#7C576C;" d="M352.058,231.523h-33.36l-8.503-19.234c-0.482-1.091,0.317-2.318,1.509-2.318h30.826
				L352.058,231.523z"/>
		</g>
		<g>
			<path d="M366.139,234.245h-47.1c-0.752,0-1.361-0.609-1.361-1.361c0-0.752,0.609-1.361,1.361-1.361h47.1
				c0.752,0,1.361,0.609,1.361,1.361C367.5,233.635,366.891,234.245,366.139,234.245z"/>
		</g>
		<g>
			<path d="M354.789,226.377c-0.091,0-0.18-0.047-0.228-0.132c-0.073-0.126-0.03-0.288,0.097-0.36
				c0.034-0.02,3.481-1.995,7.846-3.236c0.145-0.041,0.286,0.042,0.326,0.182c0.04,0.141-0.041,0.286-0.182,0.326
				c-4.303,1.224-7.692,3.166-7.727,3.186C354.88,226.366,354.834,226.377,354.789,226.377z"/>
		</g>
		<g>
			<path d="M357.717,229.174c-0.085,0-0.169-0.041-0.22-0.117c-0.081-0.121-0.048-0.285,0.073-0.366
				c0.12-0.08,2.972-1.965,5.65-2.194c0.164-0.016,0.273,0.096,0.285,0.24c0.013,0.146-0.095,0.273-0.24,0.285
				c-2.541,0.219-5.374,2.09-5.402,2.108C357.818,229.16,357.767,229.174,357.717,229.174z"/>
		</g>
		<g>
			<path d="M376.76,173.734c0,0,4.45-12.012,9.614-7.241c5.164,4.771-4.807,12.517-4.807,12.517L376.76,173.734z"/>
		</g>
	</g>
	<g>
		<path style="fill:#FFFFFF;" d="M333.65,220.747c0,1.433-1.162,2.595-2.595,2.595c-1.433,0-2.595-1.162-2.595-2.595
			c0-1.433,1.162-2.595,2.595-2.595C332.488,218.152,333.65,219.314,333.65,220.747z"/>
	</g>
</g>
<g>
	<g>
		<path style="fill:#F48462;" d="M424.909,195.866c0,0-1.39-7.704-6.037-6.447c-2.184,0.591,1.455,4.677,1.455,4.677l-6.111-2.337
			c0,0-6.955-1.939-8.338-1.334c-1.383,0.605,0.894,2.86,0.894,2.86s-4.952-1.486-4.258,0.928c0.695,2.414,4.083,3.803,4.083,3.803
			s-4.841-1.716-3.748,1.113c0.591,1.53,11.236,7.975,18.409,7.745c7.173-0.23,4.875-5.889,4.875-5.889L424.909,195.866z"/>
	</g>
	<g>
		<path d="M409.265,199.549c-0.075,0-0.149-0.031-0.202-0.093c-0.096-0.112-0.082-0.28,0.029-0.375l6.158-5.262
			c0.11-0.095,0.279-0.083,0.375,0.029s0.082,0.28-0.029,0.375l-6.158,5.262C409.388,199.528,409.327,199.549,409.265,199.549z"/>
	</g>
	<g>
		<path d="M422.211,202.548c-0.108-0.008-2.177-0.191-3.138-1.886c-0.8-1.409-0.573-3.399,0.671-5.915
			c0.066-0.132,0.225-0.185,0.356-0.121c0.131,0.065,0.185,0.225,0.12,0.356c-1.16,2.346-1.392,4.168-0.688,5.414
			c0.819,1.45,2.681,1.62,2.699,1.622c0.147,0.012,0.255,0.14,0.243,0.286C422.464,202.442,422.348,202.548,422.211,202.548z"/>
	</g>
	<g>
		<path style="fill:#A37B90;" d="M426.667,199.21l-9.292,8.124c0,0,4.004,20.094,13.357,25.644
			c9.352,5.55,17.304,0.397,17.304,0.397l-6.667-22.419L426.667,199.21z"/>
	</g>
	<g>
		<path d="M454.406,169.29c0,0-0.734-7.485,1.447-7.955c2.181-0.47,5.788,2.293,5.788,2.293s6.448,1,8.094,4.116
			c1.646,3.116,0,6.895,0,6.895s-2.406-0.273-3.878,0.062C464.384,175.036,454.406,169.29,454.406,169.29z"/>
	</g>
	<g>
		<path style="fill:#EFA459;" d="M432.141,229.367h-22.387c-0.677,0-1.225-0.549-1.225-1.225v-4.808
			c0-0.677,0.549-1.225,1.225-1.225h22.387c0.677,0,1.225,0.549,1.225,1.225v4.808C433.366,228.818,432.818,229.367,432.141,229.367
			z"/>
	</g>
	<g>
		<path style="fill:#F7B369;" d="M430.751,229.367h-22.387c-0.677,0-1.225-0.549-1.225-1.225v-4.808
			c0-0.677,0.548-1.225,1.225-1.225h22.387c0.677,0,1.225,0.549,1.225,1.225v4.808C431.977,228.818,431.428,229.367,430.751,229.367
			z"/>
	</g>
	<g>
		<path style="fill:#68B6D8;" d="M434.489,235.008h-20.152c-0.644,0-1.166-0.522-1.166-1.166v-3.263
			c0-0.644,0.522-1.166,1.166-1.166h20.152c0.644,0,1.166,0.522,1.166,1.166v3.263C435.655,234.486,435.133,235.008,434.489,235.008
			z"/>
	</g>
	<g>
		<path style="fill:#FFFFFF;" d="M433.1,235.008h-20.152c-0.644,0-1.166-0.522-1.166-1.166v-3.263c0-0.644,0.522-1.166,1.166-1.166
			H433.1c0.644,0,1.166,0.522,1.166,1.166v3.263C434.265,234.486,433.743,235.008,433.1,235.008z"/>
	</g>
	<g>
		<polygon style="fill:#92B4EA;" points="440.82,239.835 442.134,208.329 480.521,211.944 480.207,242.997 		"/>
	</g>
	<g>
		<path style="fill:#92B4EA;" d="M434.817,205.443c0,0,7.914-16.713,23.269-17.835s22.722,3.286,28.263,17.471
			c3.146,8.055,2.825,16.107,2.825,16.107h-22.875l-23.129-2.244L434.817,205.443z"/>
	</g>
	<g>
		<g>
			<path style="fill:#F48462;" d="M465.785,181.524l0.241,7.724c0,0-1.161,1.133-5.356,1.531c-3.125,0.296-4.339-1.347-4.339-1.347
				l0.243-2.287l0.382-3.551l7.56-1.77L465.785,181.524z"/>
		</g>
	</g>
	<g>
		<g>
			<path d="M464.517,181.822c-0.016,0.196-0.087,0.429-0.199,0.695c-1.558,3.607-5.939,4.44-7.743,4.626l0.382-3.551
				L464.517,181.822z"/>
		</g>
	</g>
	<g>
		<g>
			<path style="fill:#F48462;" d="M455.135,167.252c0,0-3.646,9.051-2.093,14.031c1.553,4.98,6.105,4.057,8.814,3.007
				c2.709-1.05,3.931-2.766,3.931-2.766s2.582,0.793,4.223-1.635c1.641-2.427,0.509-5.127-0.969-5.71
				c-1.478-0.583-3.184,0.521-3.184,0.521l1.285-2.637C467.142,172.065,461.034,159.03,455.135,167.252z"/>
		</g>
	</g>
	<g>
		<path d="M466.171,178.548c-0.079,0-0.158-0.037-0.209-0.105c-0.086-0.116-0.062-0.278,0.054-0.364l3.202-2.37
			c0.115-0.085,0.278-0.061,0.364,0.055c0.086,0.116,0.062,0.278-0.054,0.364l-3.202,2.37
			C466.279,178.531,466.224,178.548,466.171,178.548z"/>
	</g>
	<g>
		<path d="M469.118,178.468c-0.021,0-0.041-0.003-0.062-0.007l-2.138-0.52c-0.14-0.034-0.226-0.175-0.191-0.314
			c0.034-0.14,0.176-0.227,0.314-0.191l2.138,0.52c0.14,0.034,0.226,0.175,0.191,0.314
			C469.342,178.388,469.235,178.468,469.118,178.468z"/>
	</g>
	<g>
		<path d="M461.009,171.311c-0.107,0-0.207-0.066-0.245-0.173c-0.515-1.442-1.788-1.227-1.844-1.216
			c-0.139,0.03-0.277-0.067-0.303-0.209c-0.026-0.141,0.067-0.277,0.209-0.303c0.607-0.114,1.898,0.07,2.428,1.553
			c0.049,0.135-0.022,0.284-0.157,0.333C461.067,171.307,461.038,171.311,461.009,171.311z"/>
	</g>
	<g>
		<path d="M454.227,170.688c-0.073,0-0.147-0.031-0.198-0.092c-0.094-0.11-0.08-0.274,0.03-0.367
			c0.275-0.234,1.115-0.94,1.448-0.562c0.095,0.108,0.085,0.272-0.023,0.367c-0.076,0.066-0.178,0.081-0.266,0.048
			c-0.064,0.014-0.293,0.095-0.823,0.544C454.346,170.668,454.287,170.688,454.227,170.688z"/>
	</g>
	<g>
		<path d="M455.969,177.501c-0.078,0-0.155-0.035-0.207-0.103c-1.115-1.461,0.633-3.832,0.708-3.932
			c0.086-0.116,0.249-0.139,0.364-0.053c0.114,0.086,0.139,0.249,0.053,0.364c-0.017,0.021-1.588,2.155-0.711,3.305
			c0.087,0.114,0.065,0.277-0.049,0.365C456.079,177.483,456.024,177.501,455.969,177.501z"/>
	</g>
	<g>
		<path d="M454.306,174.136c-0.021,0-0.043-0.002-0.065-0.008c-0.139-0.036-0.223-0.178-0.187-0.317l0.427-1.652
			c0.035-0.14,0.173-0.227,0.317-0.187c0.139,0.036,0.223,0.178,0.187,0.317l-0.427,1.652
			C454.528,174.059,454.423,174.136,454.306,174.136z"/>
	</g>
	<g>
		<path d="M458.659,174.708c-0.022,0-0.043-0.002-0.065-0.008c-0.139-0.036-0.223-0.178-0.187-0.317l0.427-1.652
			c0.035-0.14,0.173-0.226,0.317-0.187c0.139,0.036,0.223,0.178,0.186,0.317l-0.427,1.652
			C458.881,174.63,458.775,174.708,458.659,174.708z"/>
	</g>
	<g>
		<path d="M454.406,169.29c0,0,0.76-1.454,2.551-1.49c1.79-0.036,2.853,1.211,2.853,1.211s-0.745,3.026,1.712,4.595
			c2.457,1.569,4.335,1.096,4.335,1.096l1.758-0.653l1.261-2.598l-4.358-6.116l-8.548-2.723L454.406,169.29z"/>
	</g>
	<g>
		<path style="fill:#FFFFFF;" d="M453.28,176.44c-0.072,0-0.144-0.003-0.216-0.01c-0.696-0.064-1.32-0.434-1.758-1.04
			c-0.429-0.595-0.625-1.349-0.554-2.123c0.15-1.612,1.426-2.814,2.852-2.686c0.696,0.065,1.32,0.434,1.757,1.04
			c0.429,0.595,0.626,1.349,0.554,2.124c-0.071,0.774-0.403,1.48-0.934,1.986C454.497,176.193,453.9,176.44,453.28,176.44z
			 M451.28,173.316c-0.06,0.647,0.103,1.274,0.456,1.766c0.346,0.48,0.835,0.772,1.377,0.822c0.536,0.053,1.075-0.148,1.503-0.556
			c0.438-0.418,0.712-1.004,0.771-1.652c0.061-0.647-0.102-1.274-0.455-1.765c-0.346-0.48-0.835-0.772-1.377-0.822
			C452.43,170.994,451.402,171.994,451.28,173.316L451.28,173.316z"/>
	</g>
	<g>
		<path style="fill:#FFFFFF;" d="M459.905,177.499c-0.09,0-0.181-0.004-0.272-0.012c-1.612-0.149-2.803-1.583-2.654-3.195
			c0.15-1.613,1.592-2.794,3.195-2.654c1.612,0.149,2.803,1.582,2.654,3.195C462.687,176.354,461.404,177.499,459.905,177.499z
			 M457.506,174.34c-0.122,1.322,0.854,2.497,2.176,2.619c1.316,0.126,2.497-0.854,2.619-2.176c0.122-1.322-0.854-2.497-2.176-2.619
			C458.782,172.028,457.629,173.019,457.506,174.34L457.506,174.34z"/>
	</g>
	<g>
		<path style="fill:#FFFFFF;" d="M457.381,173.952c-0.037,0-0.074-0.008-0.11-0.024c-0.223-0.101-0.936-0.345-1.289-0.151
			c-0.124,0.071-0.287,0.025-0.359-0.103c-0.071-0.128-0.024-0.289,0.104-0.36c0.648-0.358,1.654,0.081,1.766,0.132
			c0.133,0.061,0.19,0.218,0.13,0.351C457.577,173.895,457.48,173.952,457.381,173.952z"/>
	</g>
	<g>
		<path style="fill:#FFFFFF;" d="M462.564,175.073c-0.087,0-0.173-0.044-0.224-0.123c-0.078-0.123-0.042-0.287,0.082-0.365
			c1.815-1.156,5.492-0.85,5.649-0.836c0.146,0.013,0.253,0.141,0.24,0.287c-0.013,0.145-0.143,0.255-0.287,0.241
			c-0.035-0.004-3.654-0.304-5.319,0.754C462.662,175.06,462.613,175.073,462.564,175.073z"/>
	</g>
	<g>
		<path d="M457.955,181.255c-0.776,0-1.448-0.842-1.482-0.885c-0.049-0.062-0.066-0.143-0.049-0.22
			c0.019-0.077,0.07-0.142,0.143-0.176l2.314-1.098c0.076-0.036,0.166-0.034,0.242,0.01c0.074,0.043,0.122,0.12,0.129,0.205
			c0.005,0.064,0.11,1.566-0.811,2.044C458.276,181.22,458.113,181.255,457.955,181.255z M457.113,180.292
			c0.265,0.249,0.713,0.577,1.087,0.382c0.386-0.2,0.496-0.76,0.525-1.147L457.113,180.292z"/>
	</g>
	<g>
		<path style="fill:#40507F;" d="M460.521,191.035c-2.538,0-4.41-0.804-4.441-0.817c-0.134-0.059-0.194-0.215-0.136-0.349
			c0.061-0.134,0.221-0.193,0.349-0.136c0.049,0.021,4.993,2.134,9.594-0.711c0.126-0.076,0.288-0.038,0.364,0.086
			c0.077,0.124,0.039,0.287-0.085,0.364C464.222,190.674,462.222,191.035,460.521,191.035z"/>
	</g>
	<g>
		<g>
			<path style="fill:#F48462;" d="M447.344,221.633c0,0-12.601-4.733-14.501-4.368c-1.9,0.365-9.589,5.705-9.269,7.178
				c0.32,1.473,2.013,1.207,2.013,1.207s-1.642,0.905-1.13,1.936c0.512,1.031,2.423,0.805,2.423,0.805s-1.374,0.683,0.262,1.48
				c1.636,0.797,6.319-0.51,6.319-0.51s2.561,2.509,7.145,2.639c4.584,0.13,6.148-0.853,6.148-0.853L447.344,221.633z"/>
		</g>
	</g>
	<g>
		<path d="M426.095,225.441c-0.09,0-0.179-0.039-0.241-0.113c-0.112-0.133-0.095-0.331,0.039-0.443l5.478-4.6
			c0.132-0.112,0.331-0.094,0.443,0.039s0.095,0.331-0.039,0.443l-5.478,4.6C426.239,225.417,426.167,225.441,426.095,225.441z"/>
	</g>
	<g>
		<path d="M427.636,228.278c-0.094,0-0.186-0.042-0.248-0.122c-0.107-0.137-0.083-0.335,0.055-0.441l5.713-4.45
			c0.137-0.106,0.335-0.084,0.441,0.055c0.107,0.137,0.083,0.335-0.055,0.441l-5.713,4.45
			C427.772,228.256,427.705,228.278,427.636,228.278z"/>
	</g>
	<g>
		<path style="fill:#40507F;" d="M467.631,220.824c-0.146,0-0.265-0.118-0.265-0.265v-3.179c0-0.146,0.118-0.265,0.265-0.265
			c0.147,0,0.265,0.118,0.265,0.265v3.179C467.895,220.706,467.777,220.824,467.631,220.824z"/>
	</g>
	<g>
		<path style="fill:#40507F;" d="M441.757,217.645c-0.146,0-0.265-0.118-0.265-0.265v-5.122c0-0.146,0.118-0.265,0.265-0.265
			c0.146,0,0.265,0.118,0.265,0.265v5.122C442.021,217.527,441.903,217.645,441.757,217.645z"/>
	</g>
	<g>
		<path style="fill:#A37B90;" d="M467.631,220.56l-21.661,0.142l-2.8,11.776c0,0,19.191,11.121,31.019,6.352
			c11.828-4.768,13.254-17.873,13.254-17.873L467.631,220.56z"/>
	</g>
</g>
<g>
	<g>
		<path style="fill:#CBC4CE;" d="M600.204,344.976H313.208V245.9c0-6.418,5.203-11.621,11.62-11.621h275.375V344.976z"/>
	</g>
	<g>
		<path style="fill:#DDD7E0;" d="M586.344,344.976H299.348V245.9c0-6.418,5.203-11.621,11.62-11.621h275.375V344.976z"/>
	</g>
	<g>
		<path style="fill:#FFFFFF;" d="M587.82,261.365c-0.002,0-288.474-1.163-288.474-1.163c-0.222-0.001-0.402-0.182-0.401-0.404
			c0.001-0.222,0.181-0.4,0.402-0.4c0.001,0,288.474,1.163,288.474,1.163c0.222,0.001,0.401,0.182,0.4,0.404
			C588.221,261.186,588.042,261.365,587.82,261.365z"/>
	</g>
</g>
<g>
	<rect x="613.793" y="260.962" style="fill:#CBC4CE;" width="58.507" height="84.013"/>
</g>
<g>
	<rect x="600.204" y="260.962" style="fill:#DDD7E0;" width="58.507" height="84.013"/>
</g>
<g>
	<path style="fill:#FFFFFF;" d="M742.431,295.955h-21.777c-0.222,0-0.402-0.181-0.402-0.402c0-0.222,0.181-0.402,0.402-0.402h21.777
		c0.222,0,0.402,0.181,0.402,0.402C742.834,295.774,742.653,295.955,742.431,295.955z"/>
</g>
<g>
	<path style="fill:#FFFFFF;" d="M742.431,345.378h-69.196c-0.222,0-0.402-0.181-0.402-0.402c0-0.222,0.181-0.402,0.402-0.402h69.196
		c0.222,0,0.402,0.181,0.402,0.402C742.834,345.197,742.653,345.378,742.431,345.378z"/>
</g>
<g>
	<g>
		<path style="fill:#F48462;" d="M168.132,159.571l2.146-2.309c0,0,6.021-5.194,9.811-7.018c1.594-0.767,3.919-0.351,2.119,1.931
			c-0.971,1.232-1.407,2.652-1.407,2.652s3.061-1.177,5.115-2.727c1.316-0.993,3.096-4.768,4.32-4.048
			c1.947,1.145,0.016,4.842,0.016,4.842s0.695-4.576,2.648-2.926c1.946,1.644-2.533,10.822-4.796,13.086
			c-2.262,2.264-14.73,5.503-14.73,5.503L168.132,159.571z"/>
	</g>
	<g>
		<path d="M183.306,156.619c-0.136,0-0.256-0.099-0.278-0.238c-0.025-0.154,0.08-0.299,0.234-0.324
			c2.729-0.438,5.198-3.037,5.222-3.064c0.106-0.115,0.286-0.12,0.399-0.013c0.114,0.107,0.119,0.286,0.013,0.4
			c-0.106,0.113-2.623,2.766-5.544,3.234C183.337,156.618,183.322,156.619,183.306,156.619z"/>
	</g>
	<g>
		<path d="M186.703,158.468c-0.045,0-0.09-0.01-0.131-0.032l-5.738-3.019c-0.138-0.073-0.191-0.244-0.119-0.381
			c0.073-0.138,0.245-0.189,0.381-0.119l5.569,2.93l2.372-2.015c0.118-0.101,0.296-0.086,0.398,0.032
			c0.101,0.119,0.087,0.297-0.032,0.398l-2.518,2.139C186.834,158.446,186.769,158.468,186.703,158.468z"/>
	</g>
	<g>
		<path d="M176.055,159.016c-0.113,0-0.221-0.069-0.264-0.182c-0.056-0.145,0.017-0.309,0.163-0.365
			c2.953-1.133,4.77-3.452,4.787-3.475c0.096-0.123,0.274-0.145,0.396-0.051c0.123,0.096,0.146,0.273,0.051,0.396
			c-0.078,0.1-1.933,2.467-5.032,3.657C176.123,159.009,176.089,159.016,176.055,159.016z"/>
	</g>
	<g>
		<polygon style="fill:#F48462;" points="145.983,320.387 145.983,330.768 163.054,330.035 163.054,320.387 		"/>
	</g>
	<g>
		<polygon style="fill:#F48462;" points="103.764,319.293 103.764,329.007 120.69,328.321 120.69,319.293 		"/>
	</g>
	<g>
		<path style="fill:#F7B369;" d="M140.527,212.265c0,0,13.194,21.135,21.014,54.975c7.133,30.866,8.054,55.271,8.054,55.271
			l-30.236,1.124c0,0-3.432-25.167-4.346-35.124c-0.914-9.958-3.956-23.287-3.956-23.287s-3.477,57.439-4.486,58.411
			c-1.009,0.973-30.027-0.206-30.352-1.523c-0.634-2.57,6.066-93.805,7.546-99.958C109.315,199.069,140.527,212.265,140.527,212.265
			z"/>
	</g>
	<g>
		<g>
			<g>
				<g>
					<path style="fill:#68B6D8;" d="M124.891,345.063c0,1.714-0.576,3.675-1.755,4.169c-1.179,0.494-10.724,1.522-19.075,0.795
						c-7.995-0.699-7.887-0.411-8.477-1.137c-0.288-0.37-1.493-2.963-0.848-4.622c0.041-0.082,0.068-0.178,0.11-0.26
						c0.329-0.837,0.672-1.646,0.919-2.222c0.247-0.549,0.548-1.07,0.905-1.577c0.864-1.193,2.578-3.661,3.017-4.937
						c0.576-1.701,1.454-5.376,2.043-7.104c0.446-1.286,5.689-3.312,8.215-4.223c0.875-0.315,1.815-0.392,2.73-0.224
						c2.552,0.469,7.818,1.509,8.706,2.252c1.166,0.974,1.755,9.065,1.755,10.285v1.22c0,1.138,0.782,3.387,1.289,5.252
						c0.137,0.466,0.247,0.905,0.329,1.303C124.836,344.432,124.891,344.775,124.891,345.063z"/>
				</g>
			</g>
		</g>
	</g>
	<g>
		<path style="fill:#A37B90;" d="M131.057,264.872c-0.183-0.013-0.302-0.152-0.289-0.312c0.01-0.123,0.972-12.35,1.25-17.768
			c0.279-5.413,0.29-8.006,0.29-8.031c0.001-0.114,0.068-0.217,0.172-0.264l9.995-4.449c0.145-0.064,0.316,0.001,0.382,0.146
			c0.065,0.146-0.001,0.317-0.147,0.383l-9.825,4.373c-0.008,0.687-0.051,3.26-0.289,7.871c-0.279,5.427-1.242,17.661-1.252,17.784
			C131.334,264.758,131.207,264.872,131.057,264.872z"/>
	</g>
	<g>
		<path style="fill:#A37B90;" d="M105.909,231.849c-0.092,0-0.182-0.043-0.238-0.123c-0.092-0.132-0.06-0.313,0.072-0.403
			c5.149-3.59,6.497-8.819,6.51-8.871c0.037-0.155,0.195-0.251,0.35-0.212c0.155,0.039,0.25,0.195,0.212,0.35
			c-0.055,0.223-1.406,5.487-6.741,9.207C106.023,231.832,105.966,231.849,105.909,231.849z"/>
	</g>
	<g>
		<g>
			<path style="fill:#68B6D8;" d="M189.999,348.528c0.41-0.047,0.692-0.445,0.628-0.872c-0.303-2.024-1.41-7.683-4.556-10.135
				c-3.866-3.014-12.06-4.343-15.011-6.359c-2.951-2.016-6.205-6.811-8.005-5.948c-1.8,0.862-5.238,4.916-10.082,4.237
				s-7.063-1.897-8.392-0.745c-1.329,1.152-2.384,17.603-1.842,18.593c0.542,0.991,7.397,0.213,7.99,0.383
				c0.592,0.17,2.346-3.719,3.456-3.11c1.109,0.609,2.442,2.474,4.077,3.349C159.786,348.737,185.091,349.093,189.999,348.528z"/>
		</g>
	</g>
	<g>
		<path style="fill:#5C69A5;" d="M123.666,164.085c-18.749-0.264-20.042,8.665-20.042,8.665v16.141l-2.153,5.426l0.76,23.163
			l43.577-0.996l-1.857-22.511C143.952,193.973,144.459,164.377,123.666,164.085z"/>
	</g>
	<g>
		<path style="fill:#F7B369;" d="M127.306,168.884c0,0,0.924,2.205,0.844,3.209c-0.054,0.678-1.338,2.233-1.338,2.233
			s2.335,5.388,2.754,8.319c0.419,2.931,0.153,13.775-0.785,13.892c-0.393,0.049-4.613-12.253-4.745-13.417
			c-0.201-1.772,0.987-8.887,0.987-8.887s-1.364-1.12-1.666-1.585c-0.302-0.465-0.062-3.785-0.062-3.785
			S125.45,167.408,127.306,168.884z"/>
	</g>
	<g>
		<path style="fill:#40507F;" d="M167.262,157.139l14.01,11.388c0,0-4.873,11.951-13.727,18.62
			c-9.274,6.985-22.601,5.601-22.601,5.601l1.331,30.209l-3.682-6.399c0,0-6.161-24.644-9.544-35.474
			c-3.702-11.851-4.695-17.542-4.695-17.542s5.303-0.317,12.901,1.793C145.414,166.49,156.287,169.383,167.262,157.139z"/>
	</g>
	<g>
		<path style="fill:#40507F;" d="M118.236,163.971c0,0,6.348,59.167,5.865,59.698c-0.483,0.531-11.167,1.188-15.741,0.637
			c-4.574-0.55-7.204-1.824-7.468-1.959c-0.264-0.135-0.27-27.051-0.27-27.051l8.196-28.644
			C114.435,163.961,118.236,163.971,118.236,163.971z"/>
	</g>
	<g>
		<path style="fill:#E6F4FF;" d="M153.141,172.836c-0.322,0-0.607-0.124-0.831-0.365c-1.188-1.28-0.385-5.79-0.29-6.3
			c0.023-0.124,0.123-0.22,0.249-0.238c0.124-0.019,0.248,0.045,0.306,0.158c0.244,0.476,2.361,4.689,1.559,6.182
			c-0.172,0.321-0.465,0.513-0.847,0.556C153.238,172.834,153.189,172.836,153.141,172.836z M152.456,167.204
			c-0.22,1.612-0.394,4.13,0.288,4.864c0.129,0.139,0.28,0.193,0.478,0.172c0.189-0.021,0.31-0.098,0.391-0.248
			C154.031,171.212,153.236,168.914,152.456,167.204z"/>
	</g>
	<g>
		<g>
			<g>
				<g>
					<path style="fill:#F48462;" d="M118.205,160.426l0.052,5.887c0,0,2.821,1.835,5.662,1.836c3.836,0.001,5.019-2.344,5.019-2.344
						l-0.599-7.502L118.205,160.426z"/>
				</g>
			</g>
		</g>
	</g>
	<g>
		<path style="fill:#E6F4FF;" d="M128.817,164.294c0,0-0.592,3.362-4.417,3.143c-3.825-0.219-6.194-2.735-6.194-2.735
			s0.084,7.848,0.965,8.049c1.052,0.241,6.403-3.895,6.403-3.895l5.047,2.117c0.273,0.115,0.552-0.15,0.451-0.429L128.817,164.294z"
			/>
	</g>
	<g>
		<g>
			<g>
				<g>
					<path d="M118.205,160.273c0,0,2.747,5.653,7.089,4.93c3.501-0.583,3.04-6.415,3.04-6.415L118.205,160.273z"/>
				</g>
			</g>
		</g>
	</g>
	<g>
		<g>
			<g>
				<g>
					<path style="fill:#F48462;" d="M130.087,144.912c0,0,2.107,10.012-1.078,14.876c-3.185,4.863-7.453,3.523-9.38,2.092
						c-2.599-1.93-3.171-4.659-3.171-4.659s-3.516,0.762-4.74-2.095c-1.286-3.001,0.869-5.476,2.632-5.65s1.973,0.144,1.973,0.144
						l-0.572-3.218C115.75,146.402,126.276,134.299,130.087,144.912z"/>
				</g>
			</g>
		</g>
	</g>
	<g>
		<g>
			<g>
				<g>
					<path style="fill:#F48462;" d="M128.467,149.648c0,0,5.309-2.373,5.794,1.761c0.563,4.789-5.169,4.929-5.169,4.929
						L128.467,149.648z"/>
				</g>
			</g>
		</g>
	</g>
	<g>
		<path d="M131.197,153.889c-0.046,0-0.094-0.012-0.138-0.037c-0.136-0.076-0.185-0.249-0.108-0.384l1.733-3.088
			c0.076-0.136,0.247-0.186,0.384-0.108c0.136,0.076,0.184,0.249,0.108,0.384l-1.733,3.088
			C131.391,153.836,131.296,153.889,131.197,153.889z"/>
	</g>
	<g>
		<path d="M115.816,154.251c-0.063,0-0.127-0.021-0.18-0.065l-2.761-2.289c-0.12-0.1-0.137-0.277-0.037-0.398
			c0.099-0.121,0.278-0.138,0.397-0.037l2.761,2.289c0.12,0.1,0.137,0.277,0.037,0.397
			C115.978,154.217,115.897,154.251,115.816,154.251z"/>
	</g>
	<g>
		<path d="M113.309,154.725c-0.084,0-0.167-0.038-0.223-0.109c-0.096-0.123-0.074-0.3,0.049-0.396l1.586-1.235
			c0.123-0.097,0.3-0.075,0.396,0.049c0.096,0.123,0.074,0.3-0.049,0.396l-1.586,1.235
			C113.431,154.705,113.37,154.725,113.309,154.725z"/>
	</g>
	<g>
		<path d="M133.257,152.936h-1.526c-0.156,0-0.282-0.126-0.282-0.282c0-0.156,0.126-0.282,0.282-0.282h1.526
			c0.156,0,0.282,0.126,0.282,0.282C133.539,152.81,133.413,152.936,133.257,152.936z"/>
	</g>
	<g>
		<path d="M121.566,151.65c-0.143,0-0.265-0.108-0.28-0.253l-0.183-1.722c-0.017-0.155,0.096-0.294,0.251-0.311
			c0.151-0.014,0.295,0.096,0.311,0.251l0.183,1.722c0.017,0.155-0.096,0.294-0.251,0.311
			C121.586,151.649,121.576,151.65,121.566,151.65z"/>
	</g>
	<g>
		<path d="M127.976,151.245c-0.143,0-0.265-0.108-0.28-0.253l-0.183-1.722c-0.017-0.155,0.096-0.294,0.251-0.311
			c0.152-0.016,0.294,0.095,0.311,0.251l0.183,1.722c0.017,0.155-0.096,0.294-0.251,0.311
			C127.996,151.244,127.987,151.245,127.976,151.245z"/>
	</g>
	<g>
		<path d="M125.347,155.633c-0.061,0-0.121-0.02-0.173-0.059c-0.124-0.096-0.146-0.273-0.051-0.396
			c1.497-1.936-0.554-4.454-0.575-4.479c-0.1-0.12-0.083-0.298,0.037-0.398c0.121-0.1,0.297-0.083,0.397,0.037
			c0.023,0.029,2.362,2.89,0.587,5.186C125.515,155.595,125.432,155.633,125.347,155.633z"/>
	</g>
	<g>
		<path d="M128.479,147.837c-0.044,0-0.089-0.011-0.131-0.032c-0.673-0.351-1.698-0.099-1.709-0.096
			c-0.151,0.037-0.305-0.054-0.343-0.205c-0.039-0.151,0.053-0.305,0.204-0.343c0.05-0.013,1.243-0.309,2.109,0.143
			c0.138,0.072,0.192,0.243,0.12,0.381C128.679,147.782,128.581,147.837,128.479,147.837z"/>
	</g>
	<g>
		<path d="M120.16,148.651c-0.071,0-0.143-0.026-0.197-0.08c-0.112-0.109-0.114-0.288-0.005-0.399
			c0.683-0.699,1.908-0.788,1.961-0.791c0.158-0.009,0.289,0.107,0.3,0.263c0.01,0.155-0.107,0.29-0.263,0.301
			c-0.011,0.001-1.063,0.08-1.594,0.622C120.307,148.623,120.234,148.651,120.16,148.651z"/>
	</g>
	<g>
		<path d="M128.16,138.926c0,0,2.461,2.249,3.037,4.99c0.577,2.741,0,5.062,0,5.062l-0.554-0.008c0,0-1.327-6.646-3.471-7.256
			C125.027,141.105,128.16,138.926,128.16,138.926z"/>
	</g>
	<g>
		<path style="fill:#FFFFFF;" d="M92.264,261.561c-0.23,0-0.446-0.072-0.634-0.213c-0.642-0.482-0.778-1.62-0.792-1.748
			c-0.017-0.159,0.099-0.301,0.258-0.318c0.155-0.014,0.301,0.1,0.318,0.258c0.03,0.279,0.189,1.065,0.563,1.346
			c0.116,0.087,0.241,0.113,0.389,0.087c0.839-0.151,0.84-1.388,0.84-1.399c-0.001-0.16,0.128-0.291,0.287-0.292
			c0.161,0,0.29,0.127,0.292,0.286c0.001,0.07,0.004,1.736-1.316,1.976C92.401,261.556,92.332,261.561,92.264,261.561z"/>
	</g>
	<g>
		<path style="fill:#40507F;" d="M115.816,336.621h-8.757c-0.138,0-0.257-0.098-0.284-0.232c-0.027-0.136,0.046-0.272,0.174-0.324
			l7.9-3.253l-1.882-0.605c-2.5-0.806-6.426,0.881-6.466,0.897c-0.147,0.065-0.317-0.003-0.381-0.15
			c-0.064-0.146,0.003-0.316,0.15-0.381c0.169-0.073,4.167-1.788,6.875-0.917l2.635,0.848c0.115,0.037,0.196,0.143,0.2,0.264
			c0.005,0.122-0.066,0.233-0.179,0.279l-7.278,2.997h7.294c0.16,0,0.29,0.129,0.29,0.289
			C116.106,336.492,115.976,336.621,115.816,336.621z"/>
	</g>
	<g>
		<path style="fill:#40507F;" d="M170.215,335.669c-0.115,0-0.221-0.068-0.267-0.177c-0.053-0.125-0.012-0.27,0.098-0.348
			l2.923-2.088l-8.172,1.245c-0.149,0.018-0.28-0.065-0.321-0.204c-0.042-0.139,0.026-0.286,0.158-0.346l6.305-2.855
			c0.147-0.064,0.317-0.001,0.383,0.145c0.066,0.146,0.001,0.317-0.144,0.383l-4.392,1.988l7.293-1.111
			c0.134-0.02,0.261,0.053,0.311,0.177c0.051,0.125,0.009,0.267-0.1,0.345l-2.861,2.044l6.323-1.137
			c0.162-0.025,0.308,0.076,0.336,0.234c0.028,0.157-0.077,0.308-0.234,0.336l-7.59,1.364
			C170.249,335.668,170.232,335.669,170.215,335.669z"/>
	</g>
	<g>
		<path d="M113.677,149.646c0,0-2.724-6.357-0.622-9.093c2.449-3.186,14.638-6.015,15.883-4.434
			c1.697,2.157,0.292,7.833,0.292,7.833s-0.734-1.108-5.128-0.473c-4.394,0.635-4.838,3.045-4.838,3.045s0.254,1.993-0.444,3.122
			c-0.698,1.129-1.586,1.317-1.586,1.317v1.675l-1.417-3.184L113.677,149.646z"/>
	</g>
	<g>
		<path d="M123.438,158.99c-0.989,0-1.681-1.553-1.76-1.74c-0.042-0.1-0.024-0.215,0.047-0.297c0.072-0.081,0.185-0.115,0.288-0.086
			l2.829,0.784c0.082,0.022,0.148,0.081,0.183,0.158c0.034,0.078,0.032,0.167-0.006,0.242c-0.015,0.029-0.374,0.717-1.392,0.92
			C123.563,158.984,123.5,158.99,123.438,158.99z M122.493,157.586c0.281,0.45,0.677,0.904,1.023,0.832
			c0.351-0.07,0.591-0.21,0.749-0.34L122.493,157.586z"/>
	</g>
	<g>
		<polygon style="fill:#8192D3;" points="154.519,199.035 169.595,210.028 155.219,233.494 137.965,224.12 		"/>
	</g>
	<g>
		<polygon style="fill:#92B4EA;" points="157.054,200.969 173.333,210.775 157.113,235.926 140.256,226.054 		"/>
	</g>
	<g>
		<g>
			<path style="fill:#F48462;" d="M136.271,206.734c0,0,13.409,0.686,16.281,2.787c2.872,2.101-2.397,12.004-3.849,13.678
				c-1.452,1.674-13.861-4.582-13.861-4.582l-2.418-6.414L136.271,206.734z"/>
		</g>
	</g>
	<g>
		<g>
			<path style="fill:#F48462;" d="M152.552,209.521c0,0,6.39,7.24,5.849,10.588c-0.542,3.348-8.304-5.933-8.304-5.933
				L152.552,209.521z"/>
		</g>
	</g>
	<g>
		<g>
			<path style="fill:#F48462;" d="M144.094,221.511c0,0-6.924-0.191-5.3,2.127c1.624,2.318,8.858,1.065,9.908-0.44
				c1.05-1.504-3.174-4.807-3.174-4.807L144.094,221.511z"/>
		</g>
	</g>
	<g>
		<path d="M143.266,222.364c-0.023,0-0.046-0.003-0.07-0.009l-2.043-0.523c-0.1-0.025-0.178-0.104-0.204-0.204
			c-0.025-0.1,0.006-0.206,0.082-0.276l1.43-1.332c0.113-0.107,0.292-0.099,0.399,0.015c0.106,0.114,0.1,0.293-0.014,0.399
			l-1.052,0.98l1.542,0.395c0.151,0.038,0.242,0.192,0.203,0.344C143.507,222.279,143.392,222.364,143.266,222.364z"/>
	</g>
	<g>
		<path d="M152.505,216.469c-0.102,0-0.2-0.055-0.251-0.151c-0.586-1.122-1.689-3.02-2.155-3.332
			c-0.129-0.087-0.164-0.263-0.077-0.392c0.086-0.13,0.262-0.165,0.392-0.077c0.737,0.495,2.178,3.229,2.34,3.539
			c0.072,0.139,0.018,0.309-0.12,0.381C152.594,216.459,152.549,216.469,152.505,216.469z"/>
	</g>
	<g>
		<path d="M150.799,220.026c-0.092,0-0.182-0.045-0.236-0.127l-2.894-4.403c-0.086-0.131-0.05-0.306,0.081-0.392
			c0.131-0.084,0.306-0.048,0.391,0.081l2.894,4.403c0.086,0.131,0.05,0.306-0.081,0.392
			C150.906,220.012,150.852,220.026,150.799,220.026z"/>
	</g>
	<g>
		<path style="fill:#40507F;" d="M108.818,166.652c0,0-18.767,5.503-17.364,31.888c1.372,25.801,43.627,24.892,43.627,24.892
			l5.768-17.95l-23.863-11.981L108.818,166.652z"/>
	</g>
	<g>
		<path style="fill:#E6F4FF;" d="M120.69,195.339c-0.026,0-0.053-0.003-0.08-0.011c-0.226-0.063-5.545-1.566-6.436-3.508
			c-0.182-0.396-0.185-0.789-0.007-1.167c0.217-0.464,0.568-0.598,0.824-0.628c1.813-0.226,5.514,4.314,5.929,4.832
			c0.081,0.1,0.087,0.241,0.016,0.348C120.881,195.291,120.787,195.339,120.69,195.339z M115.14,190.609
			c-0.027,0-0.053,0.001-0.079,0.005c-0.109,0.013-0.248,0.058-0.358,0.291c-0.103,0.219-0.1,0.431,0.009,0.668
			c0.535,1.165,3.334,2.304,5.112,2.894C118.32,192.723,116.157,190.609,115.14,190.609z"/>
	</g>
</g>
</svg>
